<svg width="70" height="24" viewBox="0 0 70 24" fill="none" xmlns="http://www.w3.org/2000/svg">
<path d="M12.3152 1.74258C12.2994 1.70298 12.2757 1.66337 12.244 1.62377C12.2124 1.59208 12.1808 1.5604 12.1412 1.53664C12.0621 1.48911 11.9672 1.47327 11.8802 1.48119C11.8327 1.48911 11.7932 1.49703 11.7457 1.5208C11.7062 1.54456 11.6666 1.56832 11.635 1.6C11.6034 1.63169 11.5796 1.67129 11.5559 1.7109C11.5322 1.7505 11.5164 1.7901 11.5085 1.83763C11.5085 1.83763 10.8361 1.51288 11.0102 1.89307C11.1367 2.13862 11.3028 2.36832 11.4926 2.56634C11.4926 2.56634 12.2836 2.5505 12.513 2.45545C12.6395 2.21783 12.7424 1.96436 12.8056 1.69505C12.8926 1.29901 12.3627 1.7109 12.3152 1.74258Z" fill="#94BF3E"/>
<path d="M14.8938 12.4199C14.8938 12.5229 14.8938 12.6259 14.8859 12.7288C14.8701 12.9348 14.8305 13.1407 14.7752 13.3387C14.7435 13.4417 14.7119 13.5367 14.6802 13.6318C14.6407 13.7268 14.6011 13.8219 14.5537 13.9169C14.5062 14.012 14.4588 14.0991 14.3955 14.1862C14.3322 14.2734 14.2768 14.3526 14.2136 14.4397C14.0158 14.6853 13.7865 14.8912 13.5333 15.0734C13.4463 15.1288 13.3593 15.1843 13.2723 15.2318C13.1774 15.2793 13.0904 15.3268 12.9955 15.3664C12.9006 15.406 12.8057 15.4457 12.7028 15.4694C12.6079 15.5011 12.5051 15.5249 12.4023 15.5486C12.2994 15.5645 12.1966 15.5882 12.0938 15.5961C11.991 15.6041 11.8881 15.612 11.7853 15.612C11.6825 15.612 11.5797 15.6041 11.4769 15.5961C11.374 15.5882 11.2712 15.5724 11.1684 15.5486C11.0656 15.5249 10.9627 15.5011 10.8678 15.4694C10.7729 15.4377 10.6701 15.406 10.5752 15.3664C10.4802 15.3268 10.3853 15.2793 10.2983 15.2318C10.2113 15.1843 10.1164 15.1288 10.0373 15.0734C9.9503 15.0179 9.8712 14.9546 9.7921 14.8833C9.71301 14.8199 9.63391 14.7486 9.56273 14.6773C9.49154 14.606 9.42826 14.5268 9.36499 14.4476C9.30171 14.3684 9.23843 14.2813 9.18306 14.1942C9.1277 14.107 9.07233 14.0199 9.02487 13.9249C8.97741 13.8298 8.93787 13.7348 8.89832 13.6397C8.85877 13.5447 8.82713 13.4417 8.79549 13.3466C8.76386 13.2437 8.74804 13.1486 8.72431 13.0457C8.70849 12.9427 8.69267 12.8397 8.68476 12.7367C8.67685 12.6338 8.67685 12.5308 8.67685 12.4278C8.67685 12.3724 8.68476 12.3169 8.70849 12.2615C8.73222 12.206 8.76386 12.1585 8.8034 12.1189C8.96951 11.9526 9.24634 11.9526 9.41244 12.1189C9.49154 12.1981 9.539 12.309 9.539 12.4199C9.539 12.4912 9.539 12.5704 9.54691 12.6417C9.55482 12.713 9.56273 12.7922 9.57854 12.8635C9.59436 12.9348 9.61018 13.0061 9.63391 13.0773C9.65764 13.1486 9.68137 13.2199 9.71301 13.2833C9.73674 13.3546 9.76838 13.4179 9.80792 13.4813C9.83956 13.5447 9.87911 13.608 9.91866 13.6714C9.95821 13.7348 10.0057 13.7902 10.0531 13.8457C10.1006 13.9011 10.148 13.9565 10.2034 14.012C10.2588 14.0674 10.3062 14.115 10.3695 14.1625C10.4328 14.21 10.4881 14.2496 10.5435 14.2971C10.6068 14.3367 10.6701 14.3763 10.7333 14.408C10.7966 14.4397 10.8678 14.4714 10.9311 14.5031C10.9944 14.5348 11.0735 14.5585 11.1367 14.5744C11.2079 14.5981 11.2791 14.614 11.3503 14.6298C11.643 14.6853 11.9435 14.6853 12.2283 14.6298C12.2994 14.614 12.3706 14.5981 12.4418 14.5744C12.513 14.5506 12.5842 14.5268 12.6475 14.5031C12.7187 14.4714 12.7819 14.4397 12.8452 14.408C12.9085 14.3763 12.9718 14.3367 13.035 14.2971C13.0983 14.2575 13.1537 14.21 13.2091 14.1625C13.2644 14.115 13.3198 14.0674 13.3752 14.012C13.4305 13.9565 13.478 13.9011 13.5254 13.8457C13.5729 13.7902 13.6204 13.7268 13.6599 13.6714C13.6994 13.608 13.739 13.5447 13.7706 13.4813C13.8023 13.4179 13.8339 13.3466 13.8656 13.2833C13.8972 13.212 13.9209 13.1486 13.9367 13.0773C13.9605 13.0061 13.9763 12.9348 13.9921 12.8635C14.0237 12.7209 14.0317 12.5704 14.0396 12.4199C14.0396 12.309 14.087 12.1981 14.1661 12.1189C14.2927 11.9922 14.4746 11.9605 14.6328 12.0239C14.6881 12.0476 14.7356 12.0793 14.7752 12.1189C14.8463 12.206 14.8859 12.3169 14.8938 12.4199Z" fill="white"/>
<path d="M14.1661 7.1682L13.7548 3.61177C13.739 3.53256 13.6916 3.46919 13.6283 3.42959L12.1966 2.74048L11.7221 2.79592C11.7221 2.79592 10.5673 3.75434 10.5752 3.75434L10.5435 3.78602C10.4723 3.84939 10.4486 3.95236 10.4644 4.03949L10.8678 7.5484L14.1661 7.1682Z" fill="#94BF3E"/>
<path d="M13.5096 2.59807C13.478 2.34461 13.4226 2.09906 13.3514 1.85352L12.3311 2.42381C12.3074 2.40005 12.2836 2.38421 12.252 2.36045C12.2204 2.34461 12.1887 2.32876 12.165 2.32084C12.1334 2.31292 12.1017 2.305 12.0701 2.29708C12.0384 2.29708 12.0068 2.29708 11.9672 2.29708C11.9356 2.29708 11.904 2.305 11.8723 2.31292C11.8091 2.32876 11.7458 2.36837 11.6983 2.40797C11.6746 2.43173 11.6509 2.4555 11.6271 2.47926L10.5435 2.13074C10.504 2.39213 10.4961 2.66144 10.5119 2.93074C10.5435 3.17629 10.6068 3.41391 10.7017 3.63569L11.6509 3.09708C11.6746 3.12876 11.7062 3.15253 11.7379 3.17629C11.7695 3.20005 11.8011 3.21589 11.8407 3.23173C11.8802 3.24758 11.9119 3.2555 11.9514 3.26342C11.991 3.27134 12.0305 3.27134 12.0701 3.26342C12.1096 3.2555 12.1492 3.24758 12.1808 3.23965C12.2204 3.22381 12.252 3.20797 12.2836 3.18421C12.3153 3.16045 12.3469 3.13668 12.3706 3.105C12.3944 3.07332 12.4181 3.04163 12.4418 3.00995L13.5017 3.35847C13.5254 3.105 13.5254 2.85154 13.5096 2.59807Z" fill="#2AAA5A"/>
<path d="M12.6475 8.06336C14.7356 7.93662 16.7051 7.82573 17.5989 7.77029H17.6147H17.6305H17.678L18.0497 6.28118C18.0814 6.14653 18.0339 6.01187 17.9232 5.92474C17.8915 5.90098 17.8441 5.87722 17.8045 5.8693L13.2249 4.71286C13.1853 4.70494 13.1379 4.69702 13.0904 4.70494C12.9559 4.7287 12.8452 4.82375 12.8136 4.95841L12.0226 8.09504L12.6475 8.06336Z" fill="#E2127F"/>
<path d="M15.5107 7.89698L16.1751 5.49698L14.8542 5.16431L14.0791 7.98411L15.5107 7.89698Z" fill="#F19123"/>
<path d="M6.21698 8.4516C6.24862 8.44367 6.28026 8.44367 6.31189 8.43575C7.39551 8.37239 10.061 8.21397 12.6396 8.06347L12.8057 8.05556L12.2204 5.40209C12.2125 5.36249 12.1966 5.32288 12.1729 5.28328C12.1492 5.25159 12.1175 5.21991 12.078 5.19615C12.0384 5.17239 11.9989 5.15655 11.9594 5.14862C11.9198 5.1407 11.8723 5.1407 11.8328 5.14862L6.09833 6.41595C6.05879 6.42387 6.01924 6.43971 5.97969 6.46348C5.94805 6.48724 5.91641 6.51892 5.89268 6.55853C5.86896 6.59813 5.85314 6.63773 5.84523 6.67734C5.83732 6.71694 5.83732 6.76447 5.84523 6.80407L6.21698 8.4516ZM17.3062 5.05358C17.2113 5.18823 16.7921 5.20407 16.2859 5.15655C16.5944 4.90308 16.9978 4.66546 17.1955 4.83971C17.3062 4.911 17.33 5.01397 17.3062 5.05358ZM14.1108 4.47536C14.0554 4.42783 14.0554 4.3407 14.0949 4.28526C14.1266 4.25358 14.1661 4.22981 14.2057 4.21397C14.4588 4.14268 14.7356 4.52288 14.9096 4.87932C14.6328 4.78427 14.356 4.64961 14.1108 4.47536ZM17.5752 4.76843C17.5356 4.69714 17.4803 4.63377 17.4249 4.57833C16.9108 4.13476 16.1119 4.82387 15.843 5.08526C15.8192 5.04565 15.7876 5.00605 15.7481 4.98229C15.7085 4.9506 15.669 4.93476 15.6215 4.91892C15.574 4.90308 15.5266 4.90308 15.4791 4.911C15.4317 4.91892 15.3842 4.93476 15.3447 4.95853C15.1944 4.58625 14.7594 3.69912 14.1266 3.8813C14.0475 3.90506 13.9763 3.94466 13.9051 3.99219C13.6916 4.1506 13.6678 4.31694 13.6836 4.42783C13.7707 4.89516 14.7989 5.21991 15.1548 5.32288C15.1627 5.36249 15.1707 5.39417 15.1865 5.43377C15.2181 5.50506 15.2735 5.56051 15.3447 5.60011C15.4158 5.63971 15.487 5.65556 15.5661 5.64763C15.6057 5.63971 15.6452 5.63179 15.6769 5.61595C15.7481 5.58427 15.8034 5.52882 15.843 5.46546H15.8588C16.1989 5.51298 17.3221 5.65556 17.5989 5.25159C17.6622 5.15655 17.7096 4.99021 17.5752 4.76843Z" fill="#F19123"/>
<path d="M10.4565 4.83971L10.4724 4.83179L10.4565 4.83971Z" fill="white"/>
<path d="M10.6147 8.19009L10.0294 5.53662L7.94916 6.00395L8.46328 8.31682L10.6147 8.19009Z" fill="#DF2228"/>
<path d="M9.59439 5.35448C9.72885 4.91883 9.96614 4.42774 10.2667 4.46735C10.3142 4.47527 10.3616 4.49111 10.4012 4.50695C10.4644 4.53863 10.504 4.57824 10.504 4.59408C10.5119 4.7525 10.1164 5.06933 9.59439 5.35448ZM7.08704 5.44953C7.06331 5.42576 7.0554 5.39408 7.0554 5.35448C7.0554 5.32279 7.06331 5.29111 7.08704 5.25943C7.11868 5.21982 7.15032 5.18814 7.18987 5.15646C7.45088 4.99012 7.88591 5.32279 8.20229 5.66339C7.60907 5.63962 7.18196 5.56834 7.08704 5.44953ZM10.6068 4.12675C10.5198 4.07923 10.4328 4.05547 10.3379 4.03962C9.59439 3.9525 9.26218 4.9822 9.13563 5.47329C9.05653 5.43368 8.96953 5.42576 8.89043 5.4416C8.85088 5.44953 8.81133 5.46537 8.77179 5.48913C8.74015 5.51289 8.70851 5.54457 8.67687 5.57626C8.36049 5.19606 7.59326 4.39606 6.96049 4.80794C6.88139 4.86339 6.8102 4.92675 6.75484 5.00596C6.56501 5.25943 6.59665 5.44953 6.65992 5.56834C6.91303 6.07527 8.24975 6.08319 8.65314 6.06735H8.74806C8.77179 6.08319 8.78761 6.09903 8.81133 6.10695C8.83506 6.11487 8.85879 6.12279 8.88252 6.13071C8.90625 6.13863 8.93789 6.13863 8.96162 6.13863C8.98535 6.13863 9.01698 6.13863 9.04071 6.13071C9.06444 6.12279 9.08817 6.11487 9.1119 6.10695C9.13563 6.09903 9.15936 6.08319 9.17518 6.06735C9.19891 6.05151 9.21472 6.03566 9.23054 6.01982C9.24636 6.00398 9.26218 5.98022 9.278 5.95646L9.37292 5.91685C9.73676 5.75052 10.9311 5.14854 10.939 4.57824C10.939 4.44359 10.8837 4.25349 10.5989 4.11091" fill="#DF2228"/>
<path d="M18.1683 20.4039C17.5672 17.687 17.1717 12.6969 18.0259 8.49098C18.018 8.38801 17.9706 8.28504 17.8994 8.20583C17.8598 8.16623 17.8203 8.13455 17.7728 8.11871C17.7254 8.09494 17.67 8.08702 17.6226 8.0791C15.6293 8.19791 8.29713 8.63356 6.34346 8.74445C6.28809 8.74445 6.23273 8.76029 6.18527 8.78405C6.13781 8.80781 6.09035 8.8395 6.05872 8.8791C6.01917 8.91871 5.99544 8.96623 5.97171 9.01375C5.94798 9.06128 5.94007 9.11672 5.94007 9.17217C5.94007 9.18009 5.94007 9.18801 5.94007 9.19593C6.38301 11.7543 6.53329 16.2613 5.62369 20.4514C5.62369 20.4989 5.6316 20.5464 5.65533 20.594C5.67115 20.6415 5.70278 20.6811 5.73442 20.7207C5.7977 20.792 5.8847 20.8474 5.97962 20.8633H17.8203C17.8678 20.8553 17.9152 20.8395 17.9627 20.8157C18.0101 20.792 18.0497 20.7603 18.0813 20.7207C18.1446 20.6415 18.1841 20.5464 18.1841 20.4435C18.1683 20.4276 18.1683 20.4197 18.1683 20.4039Z" fill="#1E93D1"/>
<path d="M14.8858 12.4753C14.8858 12.5783 14.8779 12.6733 14.8621 12.7763C14.8542 12.8713 14.8305 12.9743 14.8146 13.0694C14.7988 13.1644 14.7672 13.2674 14.7356 13.3545C14.7039 13.4416 14.6723 13.5446 14.6327 13.6317C14.5932 13.7189 14.5457 13.8139 14.4983 13.9011C14.4508 13.9882 14.3954 14.0753 14.3401 14.1545C14.2847 14.2337 14.2214 14.3129 14.1581 14.3921C14.0949 14.4714 14.0237 14.5426 13.9525 14.6139C13.8813 14.6852 13.8022 14.7486 13.731 14.8119C13.6519 14.8753 13.5728 14.9308 13.4858 14.9862C13.3988 15.0416 13.3197 15.0892 13.2248 15.1367C13.1378 15.1842 13.0429 15.2238 12.9559 15.2634C12.861 15.303 12.7661 15.3347 12.6711 15.3664C12.5762 15.3981 12.4813 15.4218 12.3785 15.4377C12.2836 15.4535 12.1807 15.4694 12.0779 15.4773C11.9751 15.4852 11.8802 15.4931 11.7774 15.4931C11.6745 15.4931 11.5796 15.4852 11.4768 15.4773C11.374 15.4694 11.2791 15.4535 11.1762 15.4377C11.0734 15.4218 10.9785 15.3981 10.8836 15.3664C10.7887 15.3347 10.6937 15.303 10.5988 15.2634C10.5039 15.2238 10.4169 15.1842 10.3299 15.1367C10.2429 15.0892 10.1559 15.0416 10.0689 14.9862C9.98188 14.9308 9.90278 14.8753 9.82369 14.8119C9.74459 14.7486 9.6734 14.6852 9.60222 14.6139C9.53103 14.5426 9.45985 14.4714 9.39657 14.3921C9.33329 14.3129 9.27001 14.2337 9.21465 14.1545C9.15928 14.0753 9.10391 13.9882 9.05646 13.9011C9.009 13.8139 8.96154 13.7268 8.92199 13.6317C8.88244 13.5367 8.85081 13.4496 8.81917 13.3545C8.78753 13.2595 8.7638 13.1644 8.74007 13.0694C8.71634 12.9743 8.70052 12.8713 8.69261 12.7763C8.67679 12.6813 8.67679 12.5783 8.66888 12.4753C8.66888 12.4199 8.67679 12.3644 8.70052 12.309C8.72425 12.2535 8.75589 12.2139 8.79544 12.1664C8.83499 12.1268 8.88244 12.0951 8.93781 12.0714C9.15137 11.9842 9.40448 12.0872 9.49148 12.3011C9.51521 12.3565 9.52312 12.4119 9.52312 12.4674C9.52312 12.5387 9.52312 12.6179 9.53103 12.6892C9.53894 12.7605 9.54685 12.8317 9.56267 12.911C9.57849 12.9822 9.59431 13.0535 9.61804 13.1248C9.64177 13.1961 9.66549 13.2674 9.68922 13.3308C9.71295 13.402 9.7525 13.4654 9.78414 13.5288C9.81578 13.5921 9.85532 13.6555 9.89487 13.7189C9.93442 13.7822 9.98188 13.8377 10.0293 13.8931C10.0768 13.9486 10.1243 14.004 10.1796 14.0595C10.235 14.1149 10.2824 14.1624 10.3457 14.21C10.409 14.2575 10.4644 14.2971 10.5197 14.3446C10.583 14.3842 10.6463 14.4238 10.7096 14.4555C10.7728 14.4872 10.8361 14.5189 10.9073 14.5506C10.9785 14.5822 11.0418 14.606 11.113 14.6218C11.1841 14.6456 11.2553 14.6614 11.3265 14.6773C11.3977 14.6931 11.4689 14.7011 11.548 14.709C11.6192 14.7169 11.6983 14.7169 11.7694 14.7169C11.8406 14.7169 11.9197 14.7169 11.9909 14.709C12.0621 14.7011 12.1333 14.6931 12.2124 14.6773C12.2915 14.6614 12.3548 14.6456 12.4259 14.6218C12.4971 14.5981 12.5683 14.5743 12.6316 14.5506C12.7028 14.5189 12.7661 14.4872 12.8293 14.4555C12.8926 14.4238 12.9559 14.3842 13.0192 14.3446C13.0824 14.305 13.1378 14.2575 13.1932 14.21C13.2485 14.1624 13.3039 14.1149 13.3593 14.0595C13.4146 14.004 13.4621 13.9565 13.5096 13.8931C13.557 13.8298 13.5966 13.7743 13.644 13.7189C13.6915 13.6634 13.7231 13.5921 13.7548 13.5288C13.7864 13.4654 13.818 13.3941 13.8497 13.3308C13.8813 13.2595 13.905 13.1961 13.9209 13.1248C13.9446 13.0535 13.9604 12.9822 13.9762 12.911C13.992 12.8397 14 12.7684 14.0079 12.6892C14.0158 12.61 14.0158 12.5387 14.0158 12.4674C14.0158 12.3565 14.0632 12.2456 14.1423 12.1664C14.1819 12.1268 14.2293 12.0951 14.2847 12.0714C14.3875 12.0317 14.5062 12.0317 14.609 12.0714C14.6644 12.0951 14.7039 12.1268 14.7514 12.1664C14.7909 12.206 14.8226 12.2535 14.8463 12.309C14.8779 12.3644 14.8858 12.4199 14.8858 12.4753ZM9.12764 11.2397C9.07227 11.2397 9.01691 11.2317 8.96154 11.208C8.90617 11.1842 8.86662 11.1605 8.81917 11.1209C8.70052 11.002 8.66098 10.8119 8.72425 10.6535C8.7638 10.5506 8.85081 10.4634 8.95363 10.4238C9.009 10.4001 9.06436 10.3921 9.11973 10.3921C9.1751 10.3921 9.23047 10.4001 9.28583 10.4238C9.3412 10.4476 9.38075 10.4793 9.42821 10.5189C9.46775 10.5585 9.49939 10.606 9.52312 10.6615C9.61013 10.8832 9.5073 11.1288 9.28583 11.2238C9.23838 11.2317 9.18301 11.2397 9.12764 11.2397ZM14.4587 11.2159C14.4033 11.2159 14.3401 11.208 14.2926 11.1842C14.2372 11.1605 14.1898 11.1367 14.1502 11.0971C14.1107 11.0575 14.0791 11.01 14.0553 10.9545C13.9604 10.7407 14.0632 10.4872 14.2768 10.3921C14.3322 10.3684 14.4033 10.3525 14.4666 10.3605C14.522 10.3605 14.5774 10.3763 14.6248 10.4001C14.6723 10.4238 14.7197 10.4555 14.7593 10.4951C14.7988 10.5347 14.8305 10.5822 14.8463 10.6298C14.8858 10.7327 14.8858 10.8436 14.8463 10.9466C14.7751 11.105 14.6248 11.208 14.4587 11.2159Z" fill="white"/>
<path d="M56.4746 3.06544L56.443 3.11297V20.8635H56.6328C57.8192 20.8635 58.9978 20.2694 59.4961 19.4298L59.5198 19.3902V1.6001H59.33C58.2068 1.6001 57.0836 2.17039 56.4746 3.06544ZM33.3627 3.06544L33.3311 3.11297V20.8635H33.5209C34.7074 20.8635 35.8859 20.2694 36.3842 19.4298L36.4079 19.3902V1.6001H36.226C35.1028 1.6001 33.9797 2.17039 33.3627 3.06544ZM25.3898 9.20406H25.3503L25.3187 9.2199C24.5752 9.64762 23.9345 10.4872 23.6972 11.3664L23.5944 11.7466L23.9582 11.5882C24.417 11.3823 25.8723 11.3902 27.0271 12.1348C28.0079 12.7605 28.5379 13.7585 28.5537 15.0338C28.5537 18.0674 26.3865 18.6852 25.8011 18.6852C23.4915 18.6852 22.9695 16.0239 22.9695 15.0892V4.85554H22.7797C21.6565 4.85554 20.6045 5.38624 19.9322 6.28129L19.8927 6.32881V14.9942C19.8927 16.2852 20.4147 18.1308 21.8859 19.4377C23.0091 20.4357 24.2509 20.9031 25.8011 20.9031C27.4147 20.9031 31.5989 19.8496 31.5989 15.0417C31.5831 13.6001 31.1718 12.4357 30.3096 11.3744C28.7831 9.50505 26.2836 9.09317 25.3898 9.20406ZM38.2192 10.6773L38.1797 10.7249V20.9031H38.3695C39.4848 20.8951 40.5367 20.3961 41.2328 19.5328L41.2723 19.4852V9.2595H41.0825C39.9593 9.2595 38.8995 9.78228 38.2192 10.6773ZM39.73 4.86346C39.6271 4.86346 39.5243 4.87139 39.4294 4.89515C39.3266 4.91099 39.2317 4.94267 39.1367 4.98228C39.0418 5.02188 38.9548 5.0694 38.8678 5.12485C38.7808 5.1803 38.7017 5.24366 38.6305 5.31495C38.5593 5.38624 38.4961 5.46545 38.4407 5.55257C38.3853 5.6397 38.3379 5.72683 38.2983 5.82188C38.1797 6.10703 38.148 6.41594 38.2113 6.71693C38.2271 6.8199 38.2588 6.91495 38.2983 7.01C38.3379 7.10505 38.3853 7.19218 38.4407 7.27931C38.5514 7.44564 38.7017 7.59614 38.8678 7.70703C39.3898 8.05554 40.0622 8.05554 40.5842 7.70703C40.7503 7.59614 40.9006 7.45356 41.0113 7.27931C41.0667 7.19218 41.1141 7.10505 41.1537 7.01C41.3119 6.6298 41.3119 6.20208 41.1537 5.8298C41.1141 5.73475 41.0667 5.64762 41.0113 5.56049C40.9559 5.47337 40.8927 5.39416 40.8215 5.32287C40.7503 5.25158 40.6712 5.18822 40.5842 5.13277C40.4972 5.07733 40.4102 5.0298 40.3153 4.9902C40.2204 4.95059 40.1254 4.91891 40.0226 4.90307C39.9356 4.87931 39.8328 4.86346 39.73 4.86346ZM61.3232 10.6536L61.2836 10.7011V20.8793H61.4735C62.5887 20.8714 63.6328 20.3724 64.3367 19.509L64.3763 19.4615V9.23574H64.1865C63.0712 9.24366 62.0113 9.76644 61.3232 10.6536ZM62.8418 7.93673C63.0475 7.93673 63.2452 7.89713 63.435 7.81792C63.53 7.77832 63.617 7.73079 63.704 7.67535C63.8701 7.56445 64.0204 7.41396 64.1311 7.24762C64.4158 6.8199 64.4712 6.27337 64.2735 5.79812C64.2339 5.70307 64.1865 5.61594 64.1311 5.52881C63.9017 5.18822 63.5537 4.95059 63.1503 4.87139C62.9526 4.83178 62.7469 4.83178 62.5492 4.87139C62.4463 4.89515 62.3514 4.91891 62.2565 4.95851C62.1616 4.99812 62.0746 5.04564 61.9876 5.10109C61.8215 5.21198 61.6712 5.36247 61.5605 5.52881C61.2124 6.05158 61.2124 6.72485 61.5605 7.24762C61.6712 7.41396 61.8215 7.56445 61.9876 7.67535C62.2328 7.8496 62.5333 7.93673 62.8418 7.93673ZM48.4938 9.20406H48.4543L48.4226 9.2199C47.6791 9.64762 47.0384 10.4872 46.8011 11.3664L46.6904 11.7466L47.0543 11.5882C47.513 11.3823 48.9684 11.3902 50.1232 12.1348C51.104 12.7605 51.6339 13.7585 51.6497 15.0338C51.6497 18.0674 49.4825 18.6852 48.8972 18.6852C46.5876 18.6852 46.0656 16.0239 46.0656 15.0892V4.85554H45.8757C44.7526 4.85554 43.7006 5.38624 43.0283 6.28129L42.9887 6.32881V6.39218C42.9887 7.06544 42.9887 14.9942 42.9887 14.9942C42.9887 16.2852 43.5108 18.1308 44.9819 19.4377C46.1051 20.4357 47.3469 20.9031 48.8972 20.9031C50.5108 20.9031 54.6949 19.8496 54.6949 15.0417C54.6791 13.6001 54.2757 12.4357 53.4136 11.3744C51.887 9.50505 49.3955 9.09317 48.4938 9.20406Z" fill="#1E93D1"/>
</svg>
