<svg width="109" height="24" viewBox="0 0 109 24" fill="none" xmlns="http://www.w3.org/2000/svg">
<g clip-path="url(#clip0_138_93)">
<path fill-rule="evenodd" clip-rule="evenodd" d="M58.2677 16.53C57.0829 17.7345 55.6667 18.3405 54.0242 18.3405C52.6959 18.3405 51.5675 18.069 50.4159 17.3978V14.6348C51.342 15.2648 52.5057 15.8647 53.6543 15.8647C56.0493 15.8647 57.4753 14.2125 57.4753 11.8695C57.4753 9.525 56.0004 7.82325 53.604 7.82325C52.5342 7.82325 51.6668 8.20875 50.9887 8.982C50.2625 9.81975 49.8867 11.0175 49.8867 12.6V23.5103H49.7063C49.3917 23.5095 49.0803 23.4469 48.7899 23.326C48.4995 23.2052 48.2359 23.0284 48.014 22.8059C47.7921 22.5834 47.6163 22.3195 47.4966 22.0292C47.3769 21.7389 47.3157 21.4279 47.3165 21.114V12.1912C47.3165 8.4045 49.6251 5.3475 53.5934 5.3475C55.5517 5.3475 57.1431 6.01875 58.3496 7.36875C59.4839 8.6295 60.0455 10.227 60.0455 12.15C60.0455 13.86 59.4524 15.3233 58.2677 16.53ZM86.098 16.437C84.9178 17.7068 83.3993 18.3405 81.5591 18.3405C79.6159 18.3405 78.032 17.6685 76.827 16.3193C75.6934 15.0428 75.1311 13.4438 75.1311 11.5388C75.1311 8.166 77.7268 5.3475 81.1434 5.3475C82.4611 5.3475 83.6053 5.6265 84.7607 6.2625V9.0525C83.8345 8.4225 82.6709 7.8225 81.5222 7.8225C79.1272 7.8225 77.7005 9.4755 77.7005 11.8192C77.7005 14.1307 79.2099 15.8655 81.5719 15.8655C82.6408 15.8655 83.5218 15.4635 84.2254 14.6542C84.926 13.8495 85.2899 12.6675 85.2899 11.0805V2.39625C85.2891 2.08236 85.3503 1.77138 85.4699 1.48108C85.5896 1.19078 85.7654 0.926841 85.9873 0.704328C86.2092 0.481816 86.4729 0.30509 86.7633 0.184241C87.0536 0.0633921 87.365 0.000786943 87.6796 0L87.86 0V11.4878C87.86 13.5105 87.2767 15.1665 86.098 16.437V16.437ZM93.3559 4.12125C93.086 4.42425 92.6996 4.56375 92.2283 4.56375C91.3458 4.56375 90.7143 3.91125 90.7143 3.033C90.7143 2.1345 91.3337 1.52775 92.2275 1.52775C93.0883 1.52775 93.7415 2.1675 93.7415 3.033C93.7415 3.4605 93.6167 3.828 93.3559 4.1205V4.12125ZM106.416 11.0805C106.416 10.0643 106.033 9.2595 105.263 8.6505C104.569 8.10225 103.703 7.82325 102.648 7.82325C100.321 7.82325 98.8277 9.6465 98.8277 11.8958C98.8277 14.0595 100.412 15.8655 102.624 15.8655C104.163 15.8655 104.985 14.964 105.863 13.8405V17.0782C105.416 17.4142 104.902 17.781 104.377 17.9955C103.823 18.228 103.161 18.3405 102.397 18.3405C98.6976 18.3405 96.2575 15.2678 96.2575 11.7173C96.2575 9.894 96.8221 8.3865 97.9594 7.21125C99.166 5.9655 100.748 5.3475 102.686 5.3475C106.359 5.3475 108.987 7.4625 108.987 11.2838V18.0862H108.807C108.492 18.0855 108.181 18.0228 107.89 17.902C107.6 17.7811 107.336 17.6043 107.114 17.3817C106.892 17.1591 106.716 16.8951 106.596 16.6047C106.477 16.3143 106.416 16.0032 106.416 15.6893V11.0805V11.0805ZM71.2296 10.35C70.9049 9.34275 70.4975 8.847 69.5608 8.32275C67.3334 7.07475 65.1407 8.1375 64.1213 10.3402L71.2296 10.35ZM69.2684 18.3022C67.6266 18.6525 66.0157 18.3825 64.4438 17.502C62.9103 16.6433 61.8842 15.3668 61.3693 13.6793C60.3289 10.2668 62.46 6.46425 65.8886 5.544C67.5875 5.08725 69.2173 5.29425 70.7651 6.16125C73.336 7.60275 74.2726 9.83175 74.1095 12.7042L63.7537 12.6825C63.9063 13.854 64.6302 14.7705 65.6481 15.3405C66.6809 15.9188 67.6296 16.0575 68.5099 15.783C69.4871 15.4755 70.281 14.6752 70.9259 13.9305L73.036 15.4725C72.1753 17.0175 71.0034 17.9318 69.2684 18.3015V18.3022ZM90.9428 5.6025H93.513V18.0862H93.3326C93.0179 18.0855 92.7065 18.0228 92.416 17.9019C92.1256 17.781 91.8619 17.6042 91.64 17.3817C91.4181 17.1591 91.2423 16.895 91.1227 16.6046C91.0031 16.3143 90.942 16.0032 90.9428 15.6893V5.60175V5.6025ZM3.76164 18.0855C1.24712 18.0855 7.56512e-06 16.371 7.56512e-06 13.977V4.89225C-0.000783169 4.57826 0.0604214 4.26719 0.180127 3.9768C0.299832 3.6864 0.475694 3.42238 0.697671 3.1998C0.919648 2.97722 1.18339 2.80043 1.47385 2.67955C1.7643 2.55866 2.07578 2.49604 2.39049 2.49525H2.5709V5.6025H6.91361V8.0775H2.5709V14.2635C2.5709 15.315 3.03848 15.6105 4.04128 15.6105H6.91286V18.0855H3.76239H3.76164ZM18.6894 16.5082C17.419 17.7285 15.893 18.3405 14.1204 18.3405C12.3636 18.3405 10.8459 17.7277 9.57622 16.5082C8.30205 15.2827 7.66684 13.7235 7.66684 11.844C7.66684 8.178 10.4587 5.3475 14.1204 5.3475C15.8772 5.3475 17.3994 5.96475 18.6766 7.194C19.959 8.42625 20.5995 9.981 20.5995 11.844C20.5995 13.7235 19.9635 15.2827 18.6901 16.5082H18.6894ZM30.7079 8.60625C30.3306 9.24 30.0382 9.69525 29.8322 9.96975C29.6059 10.2683 29.3819 10.5068 29.1601 10.6718C30.9462 11.2508 31.6115 12.4913 31.6115 14.34V18.0855H31.4311C30.7956 18.0839 30.1868 17.8306 29.7385 17.3812C29.2903 16.9319 29.0392 16.3233 29.0406 15.6893V14.5942C29.0406 13.3972 28.5054 12.585 27.241 12.585H24.9046V18.0855H24.7242C24.089 18.0837 23.4804 17.8303 23.0324 17.3809C22.5844 16.9315 22.3336 16.3231 22.3352 15.6893V2.39625C22.3343 2.08239 22.3954 1.77144 22.515 1.48114C22.6346 1.19084 22.8103 0.926896 23.0322 0.704374C23.254 0.481851 23.5177 0.305114 23.808 0.184256C24.0983 0.0633974 24.4096 0.000786838 24.7242 0L24.9046 0V10.0845H25.6646C26.499 10.0845 27.0478 9.798 27.3635 9.2565L29.5217 5.60325L32.4512 5.60025L30.7064 8.60625H30.7079ZM43.9759 16.5082C42.7055 17.7285 41.1795 18.3405 39.4069 18.3405C37.6501 18.3405 36.1331 17.7277 34.8627 16.5082C33.5885 15.2827 32.9533 13.7235 32.9533 11.844C32.9533 8.178 35.7452 5.3475 39.4069 5.3475C41.1644 5.3475 42.6859 5.96475 43.9638 7.194C45.2455 8.42625 45.886 9.981 45.886 11.844C45.886 13.7235 45.25 15.2827 43.9766 16.5082H43.9759ZM42.1206 8.93925C41.4125 8.196 40.5127 7.82325 39.4069 7.82325C37.0412 7.82325 35.6257 9.552 35.6257 11.844C35.6257 14.1045 37.075 15.8655 39.4069 15.8655C41.7395 15.8655 43.1881 14.1045 43.1881 11.844C43.1881 10.644 42.8287 9.681 42.1206 8.93925V8.93925ZM16.8349 8.93925C16.1267 8.196 15.2262 7.82325 14.1211 7.82325C11.7555 7.82325 10.34 9.552 10.34 11.844C10.34 14.1045 11.7893 15.8655 14.1211 15.8655C16.453 15.8655 17.9023 14.1045 17.9023 11.844C17.9023 10.644 17.543 9.681 16.8349 8.93925V8.93925Z" fill="#03AC0E"/>
</g>
<defs>
<clipPath id="clip0_138_93">
<rect width="109" height="24" fill="white"/>
</clipPath>
</defs>
</svg>
