<svg width="20" height="20" viewBox="0 0 20 20" fill="none" xmlns="http://www.w3.org/2000/svg">
<path fill-rule="evenodd" clip-rule="evenodd" d="M10 0C4.615 0 0.25 4.365 0.25 9.75C0.25 15.135 4.615 19.5 10 19.5C15.385 19.5 19.75 15.135 19.75 9.75C19.75 4.365 15.385 0 10 0ZM14.28 10.28C14.4205 10.1394 14.4993 9.94875 14.4993 9.75C14.4993 9.55125 14.4205 9.36063 14.28 9.22L11.28 6.22C11.2113 6.14631 11.1285 6.08721 11.0365 6.04622C10.9445 6.00523 10.8452 5.98318 10.7445 5.98141C10.6438 5.97963 10.5438 5.99816 10.4504 6.03588C10.357 6.0736 10.2722 6.12974 10.201 6.20096C10.1297 6.27218 10.0736 6.35701 10.0359 6.4504C9.99816 6.54379 9.97963 6.64382 9.98141 6.74452C9.98318 6.84522 10.0052 6.94454 10.0462 7.03654C10.0872 7.12854 10.1463 7.21134 10.22 7.28L11.94 9H6.25C6.05109 9 5.86032 9.07902 5.71967 9.21967C5.57902 9.36032 5.5 9.55109 5.5 9.75C5.5 9.94891 5.57902 10.1397 5.71967 10.2803C5.86032 10.421 6.05109 10.5 6.25 10.5H11.94L10.22 12.22C10.1463 12.2887 10.0872 12.3715 10.0462 12.4635C10.0052 12.5555 9.98318 12.6548 9.98141 12.7555C9.97963 12.8562 9.99816 12.9562 10.0359 13.0496C10.0736 13.143 10.1297 13.2278 10.201 13.299C10.2722 13.3703 10.357 13.4264 10.4504 13.4641C10.5438 13.5018 10.6438 13.5204 10.7445 13.5186C10.8452 13.5168 10.9445 13.4948 11.0365 13.4538C11.1285 13.4128 11.2113 13.3537 11.28 13.28L14.28 10.28Z" fill="white"/>
</svg>
