<svg width="24" height="24" viewBox="0 0 24 24" fill="none" xmlns="http://www.w3.org/2000/svg">
<path d="M19.281 18.2194C19.3507 18.2891 19.406 18.3718 19.4437 18.4628C19.4814 18.5539 19.5008 18.6515 19.5008 18.75C19.5008 18.8486 19.4814 18.9461 19.4437 19.0372C19.406 19.1282 19.3507 19.2109 19.281 19.2806C19.2114 19.3503 19.1286 19.4056 19.0376 19.4433C18.9465 19.481 18.849 19.5004 18.7504 19.5004C18.6519 19.5004 18.5543 19.481 18.4632 19.4433C18.3722 19.4056 18.2895 19.3503 18.2198 19.2806L12.0004 13.0603L5.78104 19.2806C5.64031 19.4214 5.44944 19.5004 5.25042 19.5004C5.05139 19.5004 4.86052 19.4214 4.71979 19.2806C4.57906 19.1399 4.5 18.949 4.5 18.75C4.5 18.551 4.57906 18.3601 4.71979 18.2194L10.9401 12L4.71979 5.78063C4.57906 5.6399 4.5 5.44903 4.5 5.25001C4.5 5.05098 4.57906 4.86011 4.71979 4.71938C4.86052 4.57865 5.05139 4.49959 5.25042 4.49959C5.44944 4.49959 5.64031 4.57865 5.78104 4.71938L12.0004 10.9397L18.2198 4.71938C18.3605 4.57865 18.5514 4.49959 18.7504 4.49959C18.9494 4.49959 19.1403 4.57865 19.281 4.71938C19.4218 4.86011 19.5008 5.05098 19.5008 5.25001C19.5008 5.44903 19.4218 5.6399 19.281 5.78063L13.0607 12L19.281 18.2194Z" fill="white"/>
</svg>
