<svg width="24" height="24" viewBox="0 0 24 24" fill="none" xmlns="http://www.w3.org/2000/svg">
<path d="M15.75 11.9999C15.75 12.7416 15.5301 13.4666 15.1181 14.0833C14.706 14.7 14.1203 15.1806 13.4351 15.4644C12.7499 15.7483 11.9959 15.8225 11.2685 15.6778C10.541 15.5331 9.87285 15.176 9.3484 14.6515C8.82395 14.1271 8.4668 13.4589 8.3221 12.7315C8.17741 12.004 8.25167 11.25 8.5355 10.5648C8.81933 9.8796 9.29998 9.29393 9.91666 8.88188C10.5333 8.46982 11.2584 8.24989 12 8.24989C12.9946 8.24989 13.9484 8.64498 14.6517 9.34824C15.355 10.0515 15.75 11.0053 15.75 11.9999ZM19.5 11.9999C19.5023 10.1548 18.8221 8.37398 17.5904 7.0002C17.5252 6.92502 17.4457 6.86356 17.3566 6.8194C17.2674 6.77524 17.1703 6.74926 17.071 6.74297C16.9718 6.73669 16.8722 6.75022 16.7782 6.78278C16.6842 6.81535 16.5976 6.86629 16.5234 6.93265C16.4493 6.99901 16.3891 7.07946 16.3464 7.16931C16.3036 7.25915 16.2792 7.35661 16.2745 7.45599C16.2698 7.55537 16.2849 7.6547 16.319 7.74819C16.353 7.84167 16.4053 7.92744 16.4729 8.00051C17.4567 9.10054 18.0006 10.5246 18.0006 12.0004C18.0006 13.4762 17.4567 14.9002 16.4729 16.0002C16.3439 16.1489 16.2786 16.3424 16.2911 16.5389C16.3035 16.7353 16.3927 16.919 16.5393 17.0503C16.686 17.1816 16.8784 17.2499 17.075 17.2406C17.2717 17.2313 17.4568 17.1451 17.5904 17.0005C18.822 15.6263 19.5021 13.8453 19.5 11.9999ZM7.52724 8.00051C7.59477 7.92744 7.64708 7.84167 7.68114 7.74819C7.71519 7.6547 7.73031 7.55537 7.7256 7.45599C7.72089 7.35661 7.69646 7.25915 7.65372 7.16931C7.61098 7.07946 7.55079 6.99901 7.47666 6.93265C7.40253 6.86629 7.31593 6.81535 7.22192 6.78278C7.1279 6.75022 7.02835 6.73669 6.92905 6.74297C6.82976 6.74926 6.7327 6.77524 6.64355 6.8194C6.55439 6.86356 6.47491 6.92502 6.40974 7.0002C5.17861 8.37471 4.49784 10.1551 4.49784 12.0004C4.49784 13.8456 5.17861 15.626 6.40974 17.0005C6.54334 17.1451 6.72843 17.2313 6.92505 17.2406C7.12168 17.2499 7.31409 17.1816 7.46075 17.0503C7.60742 16.919 7.6966 16.7353 7.70904 16.5389C7.72147 16.3424 7.65618 16.1489 7.52724 16.0002C6.54245 14.9006 5.99791 13.4764 5.99791 12.0004C5.99791 10.5243 6.54245 9.10007 7.52724 8.00051ZM22.366 7.62551C21.8171 6.32196 21.0263 5.13415 20.0354 4.12489C19.9671 4.05187 19.8849 3.99324 19.7936 3.95245C19.7023 3.91166 19.6038 3.88954 19.5038 3.88738C19.4038 3.88523 19.3044 3.90308 19.2115 3.93989C19.1185 3.9767 19.0338 4.03173 18.9625 4.10174C18.8911 4.17175 18.8344 4.25533 18.7958 4.34756C18.7572 4.43979 18.7374 4.53881 18.7376 4.6388C18.7378 4.73878 18.758 4.83772 18.797 4.92978C18.836 5.02185 18.8931 5.10518 18.9647 5.17489C20.7523 6.99611 21.7538 9.44611 21.7538 11.998C21.7538 14.5499 20.7523 16.9999 18.9647 18.8211C18.8955 18.8914 18.8409 18.9747 18.8039 19.0661C18.7668 19.1575 18.7482 19.2553 18.749 19.354C18.7498 19.4526 18.77 19.5501 18.8084 19.641C18.8469 19.7318 18.9029 19.8141 18.9732 19.8833C19.0435 19.9525 19.1267 20.0072 19.2181 20.0442C19.3096 20.0812 19.4074 20.0999 19.506 20.0991C19.6047 20.0983 19.7022 20.0781 19.793 20.0396C19.8838 20.0012 19.9662 19.9452 20.0354 19.8749C21.5881 18.2893 22.6377 16.2802 23.0523 14.1C23.467 11.9198 23.2282 9.66575 22.366 7.62083V7.62551ZM3.01599 15.7949C2.26659 14.0234 2.05846 12.0697 2.41783 10.18C2.7772 8.29042 3.68799 6.5495 5.03536 5.17676C5.17485 5.03479 5.25223 4.84322 5.25047 4.6442C5.24871 4.44517 5.16796 4.255 5.02599 4.11551C4.88401 3.97603 4.69244 3.89865 4.49342 3.90041C4.2944 3.90217 4.10423 3.98292 3.96474 4.12489C1.90054 6.22632 0.743958 9.05422 0.743958 11.9999C0.743958 14.9456 1.90054 17.7735 3.96474 19.8749C4.03304 19.9479 4.11525 20.0065 4.20654 20.0473C4.29783 20.0881 4.39635 20.1102 4.49631 20.1124C4.59628 20.1146 4.69566 20.0967 4.78862 20.0599C4.88159 20.0231 4.96625 19.968 5.03764 19.898C5.10902 19.828 5.16569 19.7444 5.2043 19.6522C5.24292 19.56 5.2627 19.461 5.26249 19.361C5.26227 19.261 5.24207 19.1621 5.20307 19.07C5.16406 18.9779 5.10704 18.8946 5.03536 18.8249C4.17725 17.9512 3.49209 16.9232 3.01599 15.7949Z" fill="#192022"/>
</svg>
