<svg width="20" height="20" viewBox="0 0 20 20" fill="none" xmlns="http://www.w3.org/2000/svg">
<path d="M2.49996 2.5L4.85478 4.85482M4.85478 4.85482C2.65978 6.38063 1.66663 8.68692 1.66663 10C1.66663 12.0833 4.16663 16.6667 9.99996 16.6667C12.1566 16.6667 13.8576 16.0402 15.1451 15.1452M4.85478 4.85482L8.23215 8.23219M17.5 17.5L15.1451 15.1452M15.1451 15.1452L11.7677 11.7677M11.7677 11.7677C11.3153 12.2202 10.6903 12.5 9.99988 12.5C8.61921 12.5 7.49988 11.3808 7.49988 10C7.49988 9.30958 7.77972 8.68458 8.23215 8.23219M11.7677 11.7677L8.23215 8.23219M17.0164 13.3333C17.1192 13.1951 17.2158 13.0559 17.3061 12.9167C18.0042 11.8409 18.3333 10.7559 18.3333 10C18.3333 7.91667 15.8333 3.33333 9.99996 3.33333C9.08579 3.33333 8.25352 3.44589 7.49988 3.64375C7.35825 3.68093 7.21939 3.72113 7.08329 3.76417" stroke="#626B79" stroke-width="1.5" stroke-linecap="round"/>
</svg>
