<svg width="25" height="24" viewBox="0 0 25 24" fill="none" xmlns="http://www.w3.org/2000/svg">
<g clip-path="url(#clip0_131_214)">
<path d="M11.8945 20.4319C11.8539 20.5941 11.7603 20.7382 11.6285 20.8411C11.4967 20.944 11.3343 21 11.167 21C11.1038 21.0003 11.0408 20.9927 10.9795 20.9775L7.97951 20.2275C7.89599 20.2065 7.8167 20.1713 7.74513 20.1234L5.49513 18.6234C5.32966 18.513 5.21482 18.3414 5.17588 18.1463C5.13694 17.9513 5.17708 17.7487 5.28747 17.5833C5.39787 17.4178 5.56948 17.303 5.76455 17.264C5.95961 17.2251 6.16216 17.2652 6.32763 17.3756L8.46888 18.8034L11.3433 19.5225C11.4393 19.5458 11.5298 19.5878 11.6095 19.6462C11.6893 19.7045 11.7567 19.7781 11.8079 19.8626C11.8591 19.9471 11.8932 20.0409 11.908 20.1386C11.9229 20.2363 11.9183 20.3359 11.8945 20.4319ZM24.3342 11.3887C24.2727 11.5757 24.1747 11.7485 24.046 11.8974C23.9172 12.0462 23.7603 12.1681 23.5842 12.2559L21.3642 13.3659L19.9504 14.7806L16.2004 18.5306C16.1088 18.6222 15.995 18.6884 15.8701 18.7229C15.7453 18.7574 15.6136 18.759 15.4879 18.7275L9.48794 17.2275C9.3967 17.2046 9.31053 17.1648 9.23388 17.1103L4.02888 13.394L1.75263 12.2559C1.39688 12.0781 1.12633 11.7662 1.00045 11.389C0.874573 11.0117 0.903683 10.5999 1.08138 10.244L3.41107 5.58561C3.58891 5.22986 3.90075 4.9593 4.27802 4.83343C4.6553 4.70755 5.06712 4.73666 5.42294 4.91436L7.49107 5.94561L12.4598 4.52623C12.5946 4.48768 12.7375 4.48768 12.8723 4.52623L17.8411 5.94561L19.9092 4.91436C20.265 4.73666 20.6768 4.70755 21.0541 4.83343C21.4314 4.9593 21.7432 5.22986 21.9211 5.58561L24.2508 10.244C24.3396 10.4199 24.3927 10.6116 24.4071 10.808C24.4214 11.0045 24.3966 11.2019 24.3342 11.3887ZM18.292 14.3119L15.6942 12.2315C13.8623 13.7315 11.5364 13.9294 9.60888 12.7003C9.41928 12.5797 9.25919 12.418 9.14046 12.2272C9.02172 12.0365 8.94737 11.8214 8.92289 11.5981C8.89841 11.3747 8.92443 11.1487 8.99903 10.9367C9.07363 10.7247 9.1949 10.5322 9.35388 10.3734C9.35614 10.3707 9.35865 10.3682 9.36138 10.3659L13.567 6.28686L12.667 6.02998L7.94013 7.38092L5.37419 12.5119L9.98669 15.8072L15.4373 17.1694L18.292 14.3119ZM20.002 12.6019L17.4539 7.49998H14.4708L10.417 11.4375C11.6039 12.1959 13.4648 12.405 15.1345 10.7222C15.2649 10.5907 15.4393 10.5122 15.6242 10.5016C15.809 10.4911 15.9912 10.5492 16.1358 10.665L19.3617 13.2497L20.002 12.6019Z" fill="#192022"/>
</g>
<defs>
<clipPath id="clip0_131_214">
<rect width="24" height="24" fill="white" transform="translate(0.666992)"/>
</clipPath>
</defs>
</svg>
