<svg width="25" height="24" viewBox="0 0 25 24" fill="none" xmlns="http://www.w3.org/2000/svg">
<g clip-path="url(#clip0_131_216)">
<path d="M21.9264 13.2245C21.6812 13.0355 21.4 12.8983 21.1001 12.8215C20.8001 12.7446 20.4877 12.7295 20.1818 12.7773C21.9424 10.9998 22.833 9.23259 22.833 7.50009C22.833 5.01853 20.8371 3.00009 18.3836 3.00009C17.7326 2.996 17.0886 3.13445 16.4969 3.40573C15.9051 3.67701 15.3798 4.07454 14.958 4.5704C14.5362 4.07454 14.011 3.67701 13.4192 3.40573C12.8274 3.13445 12.1834 2.996 11.5324 3.00009C9.07895 3.00009 7.08301 5.01853 7.08301 7.50009C7.08301 8.53134 7.38676 9.53352 8.02613 10.5938C7.50248 10.7265 7.02459 10.9987 6.64332 11.3813L4.5227 13.5001H1.83301C1.43518 13.5001 1.05365 13.6581 0.772348 13.9394C0.491043 14.2207 0.333008 14.6023 0.333008 15.0001L0.333008 18.7501C0.333008 19.1479 0.491043 19.5294 0.772348 19.8107C1.05365 20.0921 1.43518 20.2501 1.83301 20.2501H11.583C11.6443 20.2501 11.7054 20.2426 11.7649 20.2276L17.7649 18.7276C17.8031 18.7185 17.8405 18.7059 17.8764 18.6901L21.5205 17.1395L21.5618 17.1207C21.912 16.9457 22.2119 16.6844 22.4332 16.3615C22.6546 16.0385 22.79 15.6646 22.8269 15.2748C22.8637 14.885 22.8008 14.4923 22.6439 14.1336C22.487 13.7749 22.2414 13.462 21.9302 13.2245H21.9264ZM20.9046 15.7698L17.3421 17.2866L11.4893 18.7501H5.58301V14.5604L7.70457 12.4398C7.84335 12.2999 8.00856 12.189 8.19059 12.1135C8.37261 12.038 8.56783 11.9995 8.76488 12.0001H13.458C13.7564 12.0001 14.0425 12.1186 14.2535 12.3296C14.4645 12.5406 14.583 12.8267 14.583 13.1251C14.583 13.4235 14.4645 13.7096 14.2535 13.9206C14.0425 14.1316 13.7564 14.2501 13.458 14.2501H10.833C10.6341 14.2501 10.4433 14.3291 10.3027 14.4698C10.162 14.6104 10.083 14.8012 10.083 15.0001C10.083 15.199 10.162 15.3898 10.3027 15.5304C10.4433 15.6711 10.6341 15.7501 10.833 15.7501H13.833C13.8895 15.7499 13.9457 15.7436 14.0008 15.7313L20.2821 14.2866L20.3111 14.2791C20.5029 14.2259 20.7075 14.2455 20.8857 14.3341C21.0639 14.4227 21.2031 14.574 21.2764 14.759C21.3497 14.944 21.352 15.1496 21.2828 15.3362C21.2136 15.5228 21.0779 15.6772 20.9018 15.7698H20.9046Z" fill="#192022"/>
</g>
<defs>
<clipPath id="clip0_131_216">
<rect width="24" height="24" fill="white" transform="translate(0.333008)"/>
</clipPath>
</defs>
</svg>
