<svg width="24" height="24" viewBox="0 0 24 24" fill="none" xmlns="http://www.w3.org/2000/svg">
<rect width="24" height="24" rx="5.5" fill="white"/>
<path d="M6.33068 18.0852L5.70068 7.54858H18.3006L17.6706 18.0852H6.33068Z" fill="#032330"/>
<path d="M5.52503 7.47561V6.92683C5.45313 6.92682 5.382 6.94226 5.31605 6.97217C5.25009 7.00208 5.19072 7.04583 5.1416 7.10071C5.09249 7.15559 5.05468 7.22043 5.03052 7.29121C5.00637 7.362 4.99638 7.43721 5.00117 7.5122L5.52503 7.47561ZM18.475 7.47561L18.9988 7.5122C19.0036 7.43721 18.9936 7.362 18.9695 7.29121C18.9453 7.22043 18.9075 7.15559 18.8584 7.10071C18.8093 7.04583 18.7499 7.00208 18.684 6.97217C18.618 6.94226 18.5469 6.92682 18.475 6.92683V7.47561ZM6.66174 17.0486L6.04889 7.43912L5.00117 7.5121L5.6141 17.1216L6.66174 17.0486ZM18.3859 17.1216L18.9988 7.5121L17.9511 7.43912L17.3383 17.0486L18.3859 17.1216ZM17.3383 17.0486C17.3235 17.2802 17.2251 17.4972 17.063 17.6557C16.9009 17.8142 16.6872 17.9024 16.4652 17.9024V19C17.4786 19 18.3185 18.1787 18.3859 17.1216L17.3383 17.0486ZM5.6141 17.1216C5.68148 18.1787 6.52139 19 7.53472 19V17.9024C7.31274 17.9024 7.09907 17.8142 6.93698 17.6557C6.77489 17.4972 6.6765 17.2801 6.66174 17.0486L5.6141 17.1216ZM10.075 7.10976C10.075 5.99848 10.9369 5.09756 12 5.09756V4C10.3569 4 9.02501 5.39226 9.02501 7.10976H10.075ZM12 5.09756C13.0631 5.09756 13.925 5.99848 13.925 7.10976H14.975C14.975 5.39226 13.6431 4 12 4V5.09756ZM5.52503 8.02439H18.475V6.92683H5.52503V8.02439ZM7.53481 19H16.4651V17.9024H7.53481V19Z" fill="#032330"/>
<path d="M13.5752 10.4021H11.3002C10.6236 10.4021 10.0752 10.9754 10.0752 11.6826C10.0752 12.3898 10.6236 12.9631 11.3002 12.9631H11.6502M11.4752 12.9631H12.7002C13.3767 12.9631 13.9252 13.5364 13.9252 14.2436C13.9252 14.9508 13.3767 15.5241 12.7002 15.5241H10.4252" stroke="white" stroke-width="1.09268" stroke-linecap="round"/>
</svg>
