<svg width="24" height="24" viewBox="0 0 24 24" fill="none" xmlns="http://www.w3.org/2000/svg">
<path fill-rule="evenodd" clip-rule="evenodd" d="M4.25305 1.84946C5.42957 1.25 6.96971 1.25 10.05 1.25H13.95C17.0303 1.25 18.5704 1.25 19.7469 1.84946C20.7818 2.37677 21.6232 3.21816 22.1505 4.25305C22.75 5.42957 22.75 6.96971 22.75 10.05V13.95C22.75 17.0303 22.75 18.5704 22.1505 19.7469C21.6232 20.7818 20.7818 21.6232 19.7469 22.1505C18.6093 22.7302 17.1316 22.7493 14.25 22.75V15.25H17C17.6904 15.25 18.25 14.6904 18.25 14C18.25 13.3096 17.6904 12.75 17 12.75H14.25V11.2C14.25 10.6193 14.251 10.259 14.2731 9.98819C14.2939 9.73371 14.3271 9.66871 14.3317 9.65968L14.3317 9.65951C14.4037 9.51839 14.5184 9.40365 14.6595 9.33175L14.6597 9.33166C14.6687 9.32705 14.7337 9.29389 14.9882 9.2731C15.259 9.25097 15.6193 9.25 16.2 9.25H17C17.6904 9.25 18.25 8.69036 18.25 8C18.25 7.30964 17.6904 6.75 17 6.75H16.2L16.1542 6.75C15.6334 6.74997 15.1696 6.74995 14.7846 6.7814C14.3738 6.81496 13.944 6.89048 13.5245 7.10423C12.913 7.41582 12.4158 7.913 12.1042 8.52453C11.8905 8.94403 11.815 9.37381 11.7814 9.78461C11.7499 10.1696 11.75 10.6334 11.75 11.1542L11.75 11.2V12.75H10C9.30964 12.75 8.75 13.3096 8.75 14C8.75 14.6904 9.30964 15.25 10 15.25H11.75V22.75H10.05C6.96971 22.75 5.42957 22.75 4.25305 22.1505C3.21816 21.6232 2.37677 20.7818 1.84946 19.7469C1.25 18.5704 1.25 17.0303 1.25 13.95V10.05C1.25 6.96971 1.25 5.42957 1.84946 4.25305C2.37677 3.21816 3.21816 2.37677 4.25305 1.84946Z" fill="white"/>
</svg>
