<svg width="24" height="24" viewBox="0 0 24 24" fill="none" xmlns="http://www.w3.org/2000/svg">
<path fill-rule="evenodd" clip-rule="evenodd" d="M4.25305 1.84946C5.42957 1.25 6.96971 1.25 10.05 1.25H13.95C17.0303 1.25 18.5704 1.25 19.7469 1.84946C20.7818 2.37677 21.6232 3.21816 22.1505 4.25305C22.75 5.42957 22.75 6.96971 22.75 10.05V13.95C22.75 17.0303 22.75 18.5704 22.1505 19.7469C21.6232 20.7818 20.7818 21.6232 19.7469 22.1505C18.5704 22.75 17.0303 22.75 13.95 22.75H10.05C6.96971 22.75 5.42957 22.75 4.25305 22.1505C3.21816 21.6232 2.37677 20.7818 1.84946 19.7469C1.25 18.5704 1.25 17.0303 1.25 13.95V10.05C1.25 6.96971 1.25 5.42957 1.84946 4.25305C2.37677 3.21816 3.21816 2.37677 4.25305 1.84946ZM7.5 6C6.67157 6 6 6.67157 6 7.5C6 8.32843 6.67157 9 7.5 9C8.32843 9 9 8.32843 9 7.5C9 6.67157 8.32843 6 7.5 6ZM8.5 11C8.5 10.4477 8.05228 10 7.5 10C6.94772 10 6.5 10.4477 6.5 11V18C6.5 18.5523 6.94772 19 7.5 19C8.05228 19 8.5 18.5523 8.5 18V11ZM12.5 14C12.5 12.8954 13.3954 12 14.5 12C15.6046 12 16.5 12.8954 16.5 14V18C16.5 18.5523 16.9477 19 17.5 19C18.0523 19 18.5 18.5523 18.5 18V14C18.5 11.7909 16.7091 10 14.5 10C12.2909 10 10.5 11.7909 10.5 14V18C10.5 18.5523 10.9477 19 11.5 19C12.0523 19 12.5 18.5523 12.5 18V14Z" fill="white"/>
</svg>
