<svg width="20" height="20" viewBox="0 0 20 20" fill="none" xmlns="http://www.w3.org/2000/svg">
<path d="M10.0001 16.8916C12.9418 16.8916 15.6834 15.1583 17.5918 12.1583C18.3418 10.9833 18.3418 9.00831 17.5918 7.83331C15.6834 4.83331 12.9418 3.09998 10.0001 3.09998C7.05845 3.09998 4.31678 4.83331 2.40845 7.83331C1.65845 9.00831 1.65845 10.9833 2.40845 12.1583C4.31678 15.1583 7.05845 16.8916 10.0001 16.8916Z" stroke="#626B79" stroke-width="1.5" stroke-linecap="round" stroke-linejoin="round"/>
<path d="M12.9834 9.99998C12.9834 11.65 11.6501 12.9833 10.0001 12.9833C8.35011 12.9833 7.01678 11.65 7.01678 9.99998C7.01678 8.34998 8.35011 7.01664 10.0001 7.01664C11.6501 7.01664 12.9834 8.34998 12.9834 9.99998Z" stroke="#626B79" stroke-width="1.5" stroke-linecap="round" stroke-linejoin="round"/>
</svg>
