<svg width="24" height="24" viewBox="0 0 24 24" fill="none" xmlns="http://www.w3.org/2000/svg">
<g clip-path="url(#clip0_1317_3967)">
<rect width="24" height="24" rx="5.5" fill="white"/>
<path d="M15.4404 7.13437C15.2624 5.37187 13.7941 4 12.0079 4C10.225 4 8.75664 5.35938 8.55324 7.1125L9.47809 7.18438C9.64336 5.91875 10.7049 4.94063 12.0016 4.94063C13.2983 4.94063 14.3725 5.93438 14.5092 7.21563L15.4404 7.13437ZM18.4375 6.93125C17.4204 6.93125 16.4066 6.87813 15.3927 6.96563L14.4679 7.04688C13.6447 7.11875 12.7421 7.325 12.0016 7.7C11.2134 7.29688 10.4061 7.08125 9.52577 7.0125L8.60091 6.94063C7.58388 6.85938 6.57321 6.92812 5.55619 6.92812H5V20H14.3566C16.9119 20 19 17.8844 19 15.2969V6.93125H18.4375ZM6.25539 12.4375C6.25539 10.9188 7.47264 9.68438 8.97276 9.68438C10.4729 9.68438 11.6901 10.9156 11.6901 12.4375C11.6901 13.9563 10.4729 15.1906 8.97276 15.1906C7.46947 15.1906 6.25539 13.9563 6.25539 12.4375ZM11.9952 16.7125C11.5916 16.2781 11.188 15.8469 10.7843 15.4156C11.0386 14.9719 11.5185 14.75 11.9952 14.7531C12.472 14.7531 12.9519 14.9719 13.2061 15.4156C12.8025 15.8469 12.3989 16.2781 11.9952 16.7125ZM15.0177 15.1906C13.5176 15.1906 12.3003 13.9594 12.3003 12.4375C12.3003 10.9188 13.5176 9.68438 15.0177 9.68438C16.5178 9.68438 17.7351 10.9156 17.7351 12.4375C17.7351 13.9563 16.5178 15.1906 15.0177 15.1906ZM9.31283 10.7281C10.2822 10.7281 11.0672 11.525 11.0672 12.5031C11.0672 13.4844 10.2822 14.2813 9.31283 14.2813C8.34347 14.2813 7.55846 13.4844 7.55846 12.5031C7.55846 12.175 7.64745 11.8688 7.8 11.6063C7.92395 11.9188 8.22906 12.1406 8.58502 12.1406C9.05221 12.1406 9.43042 11.7594 9.43042 11.2844C9.43042 11.0719 9.35414 10.8781 9.22701 10.7281H9.31283ZM14.6776 10.7281C15.647 10.7281 16.432 11.525 16.432 12.5031C16.432 13.4844 15.647 14.2813 14.6776 14.2813C13.7083 14.2813 12.9233 13.4844 12.9233 12.5031C12.9233 12.175 13.0091 11.8688 13.1616 11.6063C13.2888 11.9188 13.5907 12.1406 13.9467 12.1406C14.4138 12.1406 14.7921 11.7594 14.7921 11.2844C14.7921 11.0719 14.7158 10.8781 14.5886 10.7281H14.6776Z" fill="#032330"/>
</g>
<defs>
<clipPath id="clip0_1317_3967">
<rect width="24" height="24" fill="white"/>
</clipPath>
</defs>
</svg>
