<svg width="20" height="20" viewBox="0 0 20 20" fill="none" xmlns="http://www.w3.org/2000/svg">
<g id="Frame">
<path id="Vector" d="M18.0406 16.5625C16.8507 14.5055 15.0172 13.0305 12.8773 12.3313C13.9358 11.7011 14.7581 10.741 15.2181 9.59828C15.6781 8.45556 15.7502 7.19344 15.4235 6.00575C15.0967 4.81806 14.3891 3.77047 13.4093 3.02385C12.4296 2.27724 11.2318 1.87288 9.99997 1.87288C8.76815 1.87288 7.57038 2.27724 6.59061 3.02385C5.61084 3.77047 4.90324 4.81806 4.57648 6.00575C4.24972 7.19344 4.32186 8.45556 4.78183 9.59828C5.2418 10.741 6.06416 11.7011 7.12262 12.3313C4.98278 13.0297 3.14919 14.5047 1.95934 16.5625C1.91571 16.6337 1.88677 16.7128 1.87422 16.7953C1.86168 16.8778 1.86579 16.962 1.88631 17.0429C1.90684 17.1238 1.94335 17.1998 1.99371 17.2664C2.04407 17.3329 2.10725 17.3887 2.17952 17.4305C2.25179 17.4722 2.33169 17.4991 2.4145 17.5094C2.49732 17.5198 2.58137 17.5135 2.6617 17.4908C2.74203 17.4682 2.81701 17.4297 2.88222 17.3776C2.94743 17.3255 3.00155 17.2608 3.04137 17.1875C4.51325 14.6438 7.11481 13.125 9.99997 13.125C12.8851 13.125 15.4867 14.6438 16.9586 17.1875C16.9984 17.2608 17.0525 17.3255 17.1177 17.3776C17.1829 17.4297 17.2579 17.4682 17.3382 17.4908C17.4186 17.5135 17.5026 17.5198 17.5854 17.5094C17.6682 17.4991 17.7481 17.4722 17.8204 17.4305C17.8927 17.3887 17.9559 17.3329 18.0062 17.2664C18.0566 17.1998 18.0931 17.1238 18.1136 17.0429C18.1341 16.962 18.1383 16.8778 18.1257 16.7953C18.1132 16.7128 18.0842 16.6337 18.0406 16.5625ZM5.62497 7.5C5.62497 6.63471 5.88156 5.78885 6.36229 5.06939C6.84302 4.34992 7.5263 3.78916 8.32573 3.45803C9.12515 3.1269 10.0048 3.04026 10.8535 3.20907C11.7022 3.37788 12.4817 3.79456 13.0936 4.40641C13.7054 5.01827 14.1221 5.79782 14.2909 6.64648C14.4597 7.49515 14.3731 8.37482 14.0419 9.17424C13.7108 9.97367 13.1501 10.657 12.4306 11.1377C11.7111 11.6184 10.8653 11.875 9.99997 11.875C8.84003 11.8738 7.72795 11.4124 6.90775 10.5922C6.08754 9.77202 5.62621 8.65995 5.62497 7.5Z" fill="white"/>
</g>
</svg>
