<svg width="20" height="20" viewBox="0 0 20 20" fill="none" xmlns="http://www.w3.org/2000/svg">
<g id="Frame">
<path id="Vector" opacity="0.2" d="M15 7.5C15 8.48891 14.7068 9.45561 14.1574 10.2779C13.6079 11.1001 12.8271 11.741 11.9134 12.1194C10.9998 12.4978 9.99446 12.5969 9.02455 12.4039C8.05465 12.211 7.16373 11.7348 6.46447 11.0355C5.76521 10.3363 5.289 9.44536 5.09608 8.47545C4.90315 7.50555 5.00217 6.50021 5.3806 5.58658C5.75904 4.67295 6.39991 3.89206 7.22215 3.34265C8.0444 2.79324 9.0111 2.5 10 2.5C11.3261 2.5 12.5979 3.02678 13.5355 3.96447C14.4732 4.90215 15 6.17392 15 7.5Z" fill="white"/>
<path id="Vector_2" d="M18.0405 16.5625C16.8507 14.5055 15.0171 13.0305 12.8772 12.3312C13.9357 11.7011 14.7581 10.741 15.218 9.59827C15.678 8.45554 15.7502 7.19343 15.4234 6.00574C15.0966 4.81805 14.389 3.77045 13.4093 3.02384C12.4295 2.27722 11.2317 1.87286 9.99991 1.87286C8.76809 1.87286 7.57032 2.27722 6.59055 3.02384C5.61078 3.77045 4.90318 4.81805 4.57642 6.00574C4.24966 7.19343 4.3218 8.45554 4.78177 9.59827C5.24174 10.741 6.0641 11.7011 7.12256 12.3312C4.98272 13.0297 3.14913 14.5047 1.95928 16.5625C1.91565 16.6336 1.88671 16.7128 1.87416 16.7953C1.86162 16.8778 1.86573 16.962 1.88625 17.0429C1.90678 17.1238 1.94329 17.1998 1.99365 17.2663C2.04401 17.3329 2.10719 17.3887 2.17946 17.4304C2.25173 17.4722 2.33163 17.499 2.41444 17.5094C2.49726 17.5198 2.58131 17.5134 2.66164 17.4908C2.74197 17.4682 2.81695 17.4296 2.88216 17.3776C2.94737 17.3255 3.00148 17.2608 3.04131 17.1875C4.51319 14.6437 7.11475 13.125 9.99991 13.125C12.8851 13.125 15.4866 14.6437 16.9585 17.1875C16.9983 17.2608 17.0524 17.3255 17.1177 17.3776C17.1829 17.4296 17.2578 17.4682 17.3382 17.4908C17.4185 17.5134 17.5026 17.5198 17.5854 17.5094C17.6682 17.499 17.7481 17.4722 17.8204 17.4304C17.8926 17.3887 17.9558 17.3329 18.0062 17.2663C18.0565 17.1998 18.093 17.1238 18.1136 17.0429C18.1341 16.962 18.1382 16.8778 18.1256 16.7953C18.1131 16.7128 18.0842 16.6336 18.0405 16.5625ZM5.62491 7.49999C5.62491 6.6347 5.8815 5.78883 6.36223 5.06937C6.84296 4.3499 7.52624 3.78915 8.32567 3.45802C9.12509 3.12688 10.0048 3.04024 10.8534 3.20905C11.7021 3.37786 12.4816 3.79454 13.0935 4.4064C13.7054 5.01825 14.122 5.7978 14.2908 6.64647C14.4597 7.49514 14.373 8.3748 14.0419 9.17423C13.7107 9.97366 13.15 10.6569 12.4305 11.1377C11.7111 11.6184 10.8652 11.875 9.99991 11.875C8.83996 11.8737 7.72789 11.4124 6.90768 10.5922C6.08748 9.77201 5.62615 8.65993 5.62491 7.49999Z" fill="white"/>
</g>
</svg>
