<svg width="148" height="24" viewBox="0 0 148 24" fill="none" xmlns="http://www.w3.org/2000/svg">
<g clip-path="url(#clip0_138_109)">
<path fill-rule="evenodd" clip-rule="evenodd" d="M10.1625 12.9824L7.44977 1.75249C7.37481 1.44527 7.23762 1.1569 7.04683 0.905388C6.85598 0.653874 6.61566 0.444626 6.34078 0.290711C6.06591 0.136797 5.76241 0.0415246 5.44926 0.0108459C5.13612 -0.0198327 4.82004 0.0147414 4.52078 0.112409L1.58517 1.07189C1.28566 1.16913 1.00932 1.32745 0.773425 1.53694C0.537531 1.74643 0.347156 2.0026 0.214201 2.28942C0.0812454 2.57624 0.00856842 2.88755 0.000712927 3.2039C-0.00714261 3.52024 0.0499923 3.83482 0.168546 4.12795L4.5439 14.8167C4.7624 15.3544 5.17494 15.7891 5.69884 16.0339C6.22274 16.2786 6.81928 16.3152 7.36891 16.1364L8.64845 15.7181C9.19784 15.5386 9.65932 15.1568 9.94017 14.6494C10.221 14.1419 10.3004 13.5463 10.1625 12.9824ZM10.5703 23.8471C9.98051 24.0388 9.34739 24.0505 8.75098 23.8807C8.1545 23.711 7.62146 23.3674 7.21912 22.8932C6.81677 22.4192 6.56308 21.8359 6.49022 21.217C6.41729 20.5981 6.52841 19.9713 6.80943 19.4158C7.09051 18.8603 7.52902 18.401 8.06952 18.0959C8.60996 17.7908 9.22828 17.6534 9.84635 17.7013C10.4644 17.7491 11.0545 17.98 11.5421 18.3648C12.0298 18.7495 12.3931 19.2709 12.5863 19.8631C12.715 20.2577 12.7649 20.6741 12.7332 21.0881C12.7016 21.5023 12.5888 21.906 12.4014 22.2761C12.2142 22.6463 11.9559 22.9757 11.6417 23.2453C11.3275 23.5148 10.9634 23.7194 10.5703 23.8471ZM17.0871 20.9637C21.1124 19.649 24.3617 14.9827 22.7454 9.97944C21.1273 4.97954 15.7712 3.122 11.7459 4.43672C11.294 4.58398 10.9144 4.89787 10.6834 5.31519C10.4524 5.73252 10.3873 6.2223 10.501 6.68604L10.9071 8.3676C10.9692 8.62002 11.0822 8.85696 11.2392 9.06354C11.3963 9.27012 11.5939 9.44202 11.8199 9.5685C12.0459 9.69492 12.2954 9.77322 12.5528 9.79854C12.8102 9.82386 13.07 9.7956 13.3161 9.7155L13.4812 9.6624C13.8795 9.52008 14.302 9.45942 14.724 9.48408C15.146 9.50874 15.5588 9.61812 15.938 9.80586C16.3172 9.9936 16.6552 10.2558 16.9319 10.577C17.2086 10.8983 17.4186 11.272 17.5492 11.6762C17.6798 12.0803 17.7286 12.5068 17.6926 12.9302C17.6566 13.3536 17.5366 13.7655 17.3396 14.1415C17.1426 14.5175 16.8727 14.85 16.5457 15.1194C16.2188 15.3887 15.8414 15.5895 15.436 15.7098L15.2709 15.7629C15.0253 15.8437 14.7989 15.9745 14.6058 16.1471C14.4127 16.3198 14.2571 16.5307 14.1487 16.7665C14.0402 17.0023 13.9813 17.258 13.9755 17.5178C13.9698 17.7775 14.0173 18.0357 14.1152 18.2761L14.7641 19.8797C14.9435 20.322 15.2827 20.6797 15.7137 20.8807C16.1446 21.0818 16.6353 21.1115 17.0871 20.9637Z" fill="#E31E52"/>
<path fill-rule="evenodd" clip-rule="evenodd" d="M35.2478 8.11015C37.3876 6.95815 40.0244 7.16893 41.8108 8.96341C43.5246 10.6898 43.5593 13.1715 43.5593 14.1476C43.5593 16.9115 42.2896 19.2404 39.8724 19.9576C36.6545 20.9486 31.7261 20.0738 31.7261 20.0738C31.6167 20.0615 31.5157 20.0092 31.4423 19.9268C31.3689 19.8445 31.3282 19.7378 31.3281 19.6273V4.35524C31.3281 4.25882 31.3662 4.16635 31.4341 4.09818C31.5018 4.03 31.5938 3.9917 31.6897 3.9917H34.7079C34.8038 3.9917 34.8958 4.03 34.9636 4.09818C35.0314 4.16635 35.0695 4.25882 35.0695 4.35524V8.00725C35.0696 8.02819 35.0752 8.04871 35.0856 8.06677C35.0961 8.08489 35.1111 8.09989 35.1292 8.11033C35.1472 8.12071 35.1677 8.12623 35.1885 8.12617C35.2093 8.12617 35.2298 8.12065 35.2478 8.11015ZM35.2164 16.8634C36.1443 17.1256 37.9968 17.2252 39.0568 16.118V16.1213C39.7833 15.4108 40.6336 13.1134 38.9264 11.3969C38.2065 10.6566 37.0277 10.2565 35.3898 10.9438C35.2928 10.9904 35.2111 11.0639 35.1543 11.1557C35.0976 11.2474 35.0681 11.3536 35.0695 11.4617V16.6542C35.068 16.7003 35.0816 16.7458 35.1081 16.7835C35.1346 16.8212 35.1727 16.8493 35.2164 16.8634ZM87.5108 4.36522V20.1618C87.5114 20.2259 87.5371 20.2873 87.5818 20.3327C87.6272 20.378 87.6881 20.4037 87.7519 20.4041H91.033C91.0968 20.4041 91.1583 20.3786 91.2037 20.3333C91.249 20.2879 91.2747 20.2262 91.2753 20.1618V4.36522C91.2753 4.2688 91.2371 4.17634 91.1697 4.10816C91.1016 4.03998 91.0097 4.00168 90.9136 4.00168H87.8695C87.774 4.00256 87.6827 4.04125 87.6159 4.10933C87.5484 4.17741 87.5108 4.26938 87.5108 4.36522ZM58.1978 17.6104C58.0133 17.5843 57.8383 17.5118 57.6893 17.3995C57.5241 17.2535 57.4366 16.9961 57.4184 16.5778V7.83793C57.418 7.75399 57.3847 7.67359 57.3256 7.61425C57.2666 7.55485 57.1866 7.52131 57.1031 7.52089H54.0089C53.9253 7.52089 53.8451 7.55431 53.786 7.61377C53.7268 7.67323 53.6936 7.75387 53.6936 7.83793V15.9454C53.6952 15.9575 53.6952 15.9698 53.6936 15.9819C53.3964 17.0377 52.1647 17.3564 51.1989 17.192C49.8268 16.9597 49.2538 15.8009 49.3034 14.4663C49.3034 14.4199 49.3216 8.28949 49.3249 7.83793C49.3249 7.75387 49.2916 7.67323 49.2325 7.61377C49.1733 7.55431 49.0931 7.52089 49.0095 7.52089H45.922C45.8391 7.52089 45.7596 7.55389 45.7008 7.61269C45.642 7.67149 45.6087 7.75123 45.6083 7.83463C45.6083 9.16261 45.5984 15.547 45.5984 15.547C45.5984 16.543 45.9088 19.77 49.135 20.361C50.6523 20.6382 52.457 20.1485 53.9148 19.106C53.9283 19.096 53.9436 19.0887 53.9598 19.0847C53.9761 19.0808 53.993 19.0802 54.0095 19.0829C54.0261 19.0858 54.0418 19.0919 54.0559 19.101C54.0701 19.1101 54.0821 19.1219 54.0915 19.1359C54.4427 19.6229 54.9424 19.9814 55.5147 20.1568C56.3661 20.4383 57.5227 20.3248 57.872 20.2904L57.8808 20.2896C57.9356 20.2835 57.9867 20.2588 58.0258 20.2196C58.0648 20.1804 58.0893 20.1289 58.0954 20.0738L58.3909 17.8892C58.402 17.8265 58.3879 17.7619 58.3517 17.7097C58.3154 17.6574 58.2601 17.6217 58.1978 17.6104ZM120.098 12.8411C119.988 11.4185 119.55 9.93451 118.652 8.85715L118.628 8.82805L118.605 8.80033C118.235 8.35273 117.247 7.15609 114.204 7.16563C112.957 7.16563 111.709 7.25029 110.468 7.36981C109.757 7.43455 109.048 7.50757 108.339 7.58227C107.881 7.63075 107.882 7.91053 107.883 8.28697C107.883 8.31013 107.883 8.33365 107.883 8.35753V23.4337C107.875 23.5069 107.88 23.5814 107.899 23.6526C107.919 23.7238 107.952 23.7905 107.997 23.8486C108.11 23.9299 108.248 23.9654 108.385 23.9482H111.103C111.17 23.9672 111.24 23.9683 111.308 23.9515C111.375 23.9345 111.437 23.9002 111.487 23.8519C111.537 23.8036 111.574 23.7429 111.593 23.6759C111.613 23.609 111.615 23.538 111.598 23.4701C111.605 22.5944 111.603 21.7304 111.601 20.8636C111.6 20.429 111.598 19.9937 111.598 19.5559C111.598 19.5326 111.604 19.5098 111.617 19.49C111.629 19.4703 111.646 19.4545 111.667 19.4445C111.688 19.4345 111.711 19.4308 111.734 19.4338C111.757 19.4368 111.779 19.4463 111.797 19.4612C112.88 20.4091 114.499 20.6714 115.89 20.2664C117.363 19.8414 118.584 18.706 119.286 17.3332C119.988 15.9603 120.215 14.3816 120.098 12.8411ZM116.301 14.6572C115.99 15.8773 115.434 16.8152 113.763 16.9165C112.927 16.9646 111.6 16.4899 111.6 15.708V11.0318C111.6 10.8525 111.62 10.7213 111.794 10.6433C112.152 10.4773 113.114 10.3429 113.852 10.3661C117.029 10.4574 116.463 14.0546 116.309 14.6572H116.301ZM67.9175 13.5085C67.6532 13.8853 67.6532 14.0131 67.9008 14.3651L72.28 20.0273C72.3056 20.0636 72.3211 20.1065 72.3241 20.1511C72.3271 20.1957 72.3176 20.2402 72.2961 20.2796C72.2764 20.3197 72.2459 20.3533 72.2078 20.3765C72.1702 20.3998 72.126 20.4116 72.0818 20.4108H68.4755C68.4355 20.4106 68.3968 20.4005 68.3615 20.3814C68.3263 20.3623 68.2965 20.3348 68.2744 20.3012L64.5034 15.3843C64.4801 15.3544 64.4479 15.3325 64.4121 15.3214C64.3757 15.3102 64.3375 15.3104 64.3011 15.322C64.2653 15.3335 64.2337 15.3559 64.211 15.386C64.1877 15.4162 64.1746 15.4526 64.1728 15.4906V20.1685C64.1728 20.2328 64.1465 20.2945 64.1012 20.3399C64.0558 20.3853 63.9943 20.4108 63.9305 20.4108H60.6745C60.6106 20.4104 60.5498 20.3847 60.5044 20.3393C60.4591 20.294 60.434 20.2326 60.4334 20.1685V4.36522C60.4328 4.31706 60.4417 4.2693 60.4602 4.2247C60.4782 4.1801 60.505 4.13955 60.5384 4.10542C60.5724 4.07129 60.6124 4.04425 60.6566 4.02587C60.7013 4.00749 60.7485 3.99814 60.7968 3.99837H63.8099C63.9054 3.99837 63.9973 4.03666 64.0654 4.10484C64.1334 4.17302 64.1716 4.26549 64.1716 4.36191V12.6619C64.1728 12.6958 64.1841 12.7285 64.2044 12.7556C64.2247 12.7828 64.2522 12.803 64.2844 12.8137C64.3166 12.8243 64.3506 12.8249 64.3834 12.8153C64.4157 12.8056 64.4443 12.7863 64.4652 12.7598C65.1915 11.7638 67.6961 8.23471 68.0978 7.65865C68.1198 7.62631 68.1491 7.59991 68.1837 7.58167C68.2183 7.56343 68.2565 7.55395 68.2959 7.55407H71.8175C71.8628 7.55293 71.9076 7.56523 71.9458 7.58941C71.9846 7.61365 72.015 7.64869 72.0335 7.69021C72.0544 7.73065 72.0633 7.77637 72.0592 7.82173C72.0544 7.86709 72.0371 7.91023 72.009 7.94587L67.9175 13.5085ZM143.494 14.3651C143.248 14.0131 143.248 13.8853 143.512 13.5085L147.61 7.94587C147.638 7.90975 147.654 7.86679 147.658 7.82167C147.663 7.77655 147.655 7.73113 147.635 7.69045C147.615 7.64977 147.584 7.61551 147.546 7.59139C147.508 7.56733 147.464 7.55437 147.419 7.55407H143.89C143.851 7.55383 143.813 7.56325 143.778 7.58149C143.744 7.59973 143.714 7.62625 143.692 7.65865C143.291 8.23471 140.786 11.7638 140.06 12.7598C140.039 12.787 140.01 12.8069 139.977 12.8169C139.945 12.8269 139.91 12.8265 139.878 12.8158C139.845 12.805 139.817 12.7845 139.797 12.757C139.776 12.7294 139.765 12.6962 139.764 12.6619V4.3619C139.764 4.31416 139.755 4.26688 139.737 4.22278C139.718 4.17867 139.692 4.1386 139.658 4.10484C139.625 4.07108 139.585 4.0443 139.541 4.02603C139.497 4.00776 139.45 3.99836 139.403 3.99836H136.383C136.335 3.99836 136.288 4.00776 136.245 4.02603C136.2 4.0443 136.16 4.07108 136.127 4.10484C136.094 4.1386 136.067 4.17867 136.049 4.22278C136.03 4.26688 136.021 4.31416 136.021 4.3619V20.1651C136.021 20.2295 136.048 20.2912 136.093 20.3366C136.138 20.382 136.2 20.4074 136.264 20.4074H139.52C139.584 20.407 139.645 20.3813 139.69 20.336C139.735 20.2906 139.761 20.2292 139.761 20.1651V15.4906C139.764 15.4531 139.777 15.4172 139.8 15.3877C139.823 15.3581 139.854 15.3362 139.89 15.3248C139.926 15.3134 139.964 15.3129 139.999 15.3235C140.035 15.3341 140.068 15.3553 140.091 15.3843L143.862 20.3012C143.884 20.3347 143.914 20.3621 143.95 20.3812C143.985 20.4003 144.024 20.4104 144.064 20.4108H147.671C147.716 20.4113 147.759 20.3992 147.797 20.3761C147.835 20.3528 147.866 20.3195 147.886 20.2796C147.907 20.2402 147.916 20.1955 147.913 20.1508C147.91 20.1061 147.894 20.0633 147.868 20.0273L143.494 14.3651ZM85.2204 17.6081L85.2586 17.617C85.3189 17.6309 85.372 17.6673 85.4066 17.7187C85.4412 17.7701 85.4549 17.8328 85.4454 17.8942L85.1464 20.0788C85.141 20.1334 85.1172 20.1846 85.079 20.2236C85.0402 20.2626 84.9895 20.2871 84.9352 20.2929L84.8779 20.299C84.4595 20.3435 83.1687 20.4809 82.2407 20.0373C81.8009 19.8417 81.4213 19.5303 81.1427 19.1359C81.1343 19.1224 81.1236 19.1108 81.1104 19.1018C81.0973 19.0928 81.083 19.0865 81.0675 19.0834C81.0519 19.0803 81.0358 19.0804 81.0203 19.0837C81.0048 19.087 80.9905 19.0935 80.9779 19.1027C80.5053 19.4447 78.4464 20.776 76.1232 20.3444C75.447 20.2265 74.8127 19.933 74.2839 19.4928C72.5521 17.9988 72.4369 14.7933 74.1371 13.1964C74.5638 12.8376 75.0466 12.5516 75.5652 12.3498C77.7631 11.392 80.7512 11.5348 80.7512 11.5348C80.7846 10.9604 80.679 10.2266 79.2557 10.0972C78.111 9.97039 75.9961 10.3442 75.3695 10.455C75.3151 10.4645 75.2722 10.4722 75.2418 10.4773C75.1946 10.4861 75.1457 10.4852 75.0991 10.4748C75.052 10.4644 75.0072 10.4446 74.9684 10.4165C74.929 10.3885 74.8956 10.3529 74.8706 10.3117C74.8449 10.2706 74.8282 10.2247 74.821 10.1768L74.1371 8.13343C74.1294 8.08621 74.1306 8.03785 74.1413 7.99117C74.1514 7.94449 74.1711 7.90033 74.1992 7.86133C74.2266 7.82227 74.2618 7.78915 74.3018 7.76377C74.3424 7.73839 74.3872 7.72129 74.4343 7.71343C75.0848 7.61053 76.8996 7.34989 77.6855 7.26523C81.7066 6.78529 82.9377 8.11783 83.3889 8.60599L83.3895 8.60623C83.417 8.63629 83.442 8.66317 83.4641 8.68621C84.4434 9.78841 84.5091 11.3422 84.4995 12.7415L84.4732 16.3936C84.4732 17.4368 84.8277 17.5181 85.2204 17.6081ZM80.5465 16.7056C80.6706 16.5778 80.741 16.4063 80.7416 16.2275V14.1061C80.7416 13.8833 80.1425 13.9489 79.9945 13.9652C79.9766 13.9671 79.9658 13.9683 79.9622 13.9683C78.9519 14.1061 78.2352 14.2953 77.778 14.5343C77.1968 14.8431 76.9044 15.3096 76.9044 15.9287C76.896 16.1395 76.9366 16.3493 77.0225 16.5417C77.1085 16.7341 77.2374 16.9039 77.3997 17.0377C78.6213 17.9141 80.1502 17.1289 80.5465 16.7056ZM105.638 17.617L105.599 17.608C105.208 17.518 104.854 17.4365 104.854 16.3936L104.881 12.7415C104.89 11.3422 104.823 9.78841 103.845 8.68621C103.822 8.66281 103.797 8.63545 103.769 8.60479C103.315 8.11561 102.082 6.78565 98.0666 7.26523C97.2806 7.34989 95.4658 7.61053 94.8153 7.71343C94.7211 7.73005 94.6369 7.78357 94.5814 7.86223C94.5259 7.94089 94.5038 8.03839 94.5199 8.13343L95.2033 10.1768C95.2104 10.2247 95.2277 10.2706 95.2528 10.3117C95.2784 10.3529 95.3113 10.3885 95.3507 10.4165C95.39 10.4446 95.4342 10.4644 95.4813 10.4748C95.5285 10.4852 95.5768 10.4861 95.6246 10.4773L95.652 10.4723C96.1008 10.3898 98.4187 9.96397 99.6331 10.0939C101.056 10.2233 101.162 10.9571 101.13 11.5314C101.13 11.5314 98.1406 11.3887 95.9432 12.3465C95.4264 12.5489 94.946 12.8349 94.5217 13.1931C92.8227 14.79 92.9361 17.9955 94.6685 19.4895C95.1973 19.9297 95.8311 20.2232 96.5078 20.3411C98.8322 20.7727 100.89 19.4413 101.362 19.0994C101.374 19.0902 101.389 19.0837 101.405 19.0804C101.42 19.0771 101.436 19.077 101.451 19.0801C101.467 19.0832 101.482 19.0895 101.494 19.0985C101.508 19.1075 101.518 19.1191 101.527 19.1326C101.805 19.5269 102.185 19.8384 102.625 20.0339C103.553 20.4775 104.844 20.3402 105.262 20.2957L105.32 20.2896C105.374 20.2838 105.424 20.2593 105.463 20.2203C105.501 20.1813 105.526 20.1301 105.531 20.0755L105.838 17.8942C105.847 17.831 105.831 17.7666 105.794 17.7149C105.757 17.6631 105.701 17.628 105.638 17.617ZM101.129 16.2275C101.128 16.4063 101.058 16.5778 100.934 16.7056C100.536 17.1289 99.0077 17.9141 97.7873 17.0377C97.625 16.9038 97.4961 16.734 97.4101 16.5416C97.3242 16.3493 97.2836 16.1395 97.292 15.9287C97.292 15.3096 97.5844 14.8431 98.1668 14.5343C98.6246 14.2953 99.3395 14.1061 100.35 13.9683C100.353 13.9683 100.364 13.9671 100.381 13.9652C100.53 13.9489 101.13 13.8832 101.13 14.1061L101.129 16.2275ZM133.714 17.6081C133.727 17.611 133.74 17.614 133.752 17.617C133.813 17.6305 133.866 17.6661 133.901 17.7167C133.936 17.7674 133.952 17.8295 133.944 17.8909L133.645 20.0755C133.64 20.1301 133.616 20.1813 133.578 20.2203C133.539 20.2593 133.488 20.2838 133.434 20.2896C133.417 20.2913 133.397 20.2934 133.375 20.2958C132.955 20.3404 131.665 20.4772 130.739 20.0339C130.299 19.8388 129.92 19.5273 129.641 19.1326C129.633 19.1193 129.622 19.1079 129.609 19.099C129.596 19.0901 129.582 19.0839 129.566 19.0808C129.551 19.0777 129.534 19.0778 129.52 19.081C129.504 19.0841 129.489 19.0904 129.477 19.0994C129.004 19.4413 126.945 20.7727 124.622 20.3411C123.946 20.2236 123.311 19.93 122.783 19.4895C121.051 17.9955 120.936 14.79 122.636 13.1931C123.061 12.8349 123.541 12.5489 124.057 12.3465C126.255 11.3887 129.244 11.5314 129.244 11.5314C129.275 10.9571 129.171 10.2233 127.748 10.0939C126.527 9.96343 124.194 10.3935 123.761 10.4734L123.739 10.4773C123.691 10.4861 123.643 10.4853 123.595 10.4749C123.549 10.4644 123.504 10.4446 123.465 10.4167C123.425 10.3886 123.392 10.353 123.366 10.3118C123.341 10.2707 123.324 10.2248 123.316 10.1768L122.633 8.13343C122.617 8.03821 122.64 7.94071 122.695 7.86211C122.751 7.78351 122.835 7.73011 122.93 7.71343C123.579 7.61053 125.395 7.34989 126.179 7.26523C130.2 6.78529 131.432 8.11783 131.883 8.60599C131.911 8.63617 131.935 8.66311 131.958 8.68621C132.935 9.78841 133.003 11.3422 132.993 12.7415L132.967 16.3936C132.967 17.4368 133.322 17.5181 133.714 17.6081ZM129.047 16.7056C129.171 16.5778 129.241 16.4063 129.242 16.2275V14.1061C129.242 13.8833 128.643 13.9489 128.494 13.9652C128.477 13.9671 128.466 13.9683 128.463 13.9683C127.451 14.1061 126.736 14.2953 126.278 14.5343C125.695 14.8431 125.405 15.3096 125.405 15.9287C125.396 16.1395 125.437 16.3493 125.523 16.5417C125.609 16.7341 125.738 16.9039 125.9 17.0377C127.122 17.9141 128.649 17.1289 129.047 16.7056Z" fill="#303330"/>
</g>
<defs>
<clipPath id="clip0_138_109">
<rect width="148" height="24" fill="white"/>
</clipPath>
</defs>
</svg>
