<svg width="24" height="24" viewBox="0 0 24 24" fill="none" xmlns="http://www.w3.org/2000/svg">
<g id="Facebook" clip-path="url(#clip0_535_928)">
<path id="Vector" fill-rule="evenodd" clip-rule="evenodd" d="M4 0C1.79086 0 0 1.79086 0 4V20C0 22.2091 1.79086 24 4 24H20C22.2091 24 24 22.2091 24 20V4C24 1.79086 22.2091 0 20 0H4ZM17 2.31537H20V6.30739H17C16.7348 6.30738 16.4804 6.41253 16.2929 6.59969C16.1054 6.78686 16 7.0407 16 7.30539V10.2994H20L19 14.2914H16V22.2755H12V14.2914H9V10.2994H12V7.30539C12 5.98195 12.5268 4.71272 13.4645 3.77691C14.4021 2.8411 15.6739 2.31537 17 2.31537Z" fill="white"/>
</g>
<defs>
<clipPath id="clip0_535_928">
<rect width="24" height="24" fill="white"/>
</clipPath>
</defs>
</svg>
