<svg width="24" height="24" viewBox="0 0 24 24" fill="none" xmlns="http://www.w3.org/2000/svg">
<path d="M5.78068 2.78068L2.78068 5.78068C2.71099 5.85036 2.62827 5.90563 2.53722 5.94335C2.44618 5.98106 2.3486 6.00047 2.25005 6.00047C2.1515 6.00047 2.05392 5.98106 1.96288 5.94335C1.87183 5.90563 1.78911 5.85036 1.71943 5.78068C1.5787 5.63995 1.49963 5.44907 1.49963 5.25005C1.49963 5.05103 1.5787 4.86016 1.71943 4.71943L4.71943 1.71943C4.78911 1.64974 4.87183 1.59447 4.96288 1.55676C5.05392 1.51904 5.1515 1.49963 5.25005 1.49963C5.3486 1.49963 5.44618 1.51904 5.53722 1.55676C5.62827 1.59447 5.71099 1.64974 5.78068 1.71943C5.85036 1.78911 5.90563 1.87183 5.94335 1.96288C5.98106 2.05392 6.00047 2.1515 6.00047 2.25005C6.00047 2.3486 5.98106 2.44618 5.94335 2.53722C5.90563 2.62827 5.85036 2.71099 5.78068 2.78068ZM22.2807 4.71943L19.2807 1.71943C19.1399 1.5787 18.9491 1.49963 18.7501 1.49963C18.551 1.49963 18.3602 1.5787 18.2194 1.71943C18.0787 1.86016 17.9996 2.05103 17.9996 2.25005C17.9996 2.44907 18.0787 2.63995 18.2194 2.78068L21.2194 5.78068C21.2891 5.85036 21.3718 5.90563 21.4629 5.94335C21.5539 5.98106 21.6515 6.00047 21.7501 6.00047C21.8486 6.00047 21.9462 5.98106 22.0372 5.94335C22.1283 5.90563 22.211 5.85036 22.2807 5.78068C22.3504 5.71099 22.4056 5.62827 22.4433 5.53722C22.4811 5.44618 22.5005 5.3486 22.5005 5.25005C22.5005 5.1515 22.4811 5.05392 22.4433 4.96288C22.4056 4.87183 22.3504 4.78911 22.2807 4.71943ZM21.0001 12C21.0001 13.7801 20.4722 15.5201 19.4833 17.0002C18.4943 18.4802 17.0887 19.6338 15.4442 20.315C13.7997 20.9962 11.9901 21.1744 10.2442 20.8271C8.49841 20.4799 6.89476 19.6227 5.63609 18.364C4.37742 17.1053 3.52025 15.5017 3.17298 13.7559C2.82572 12.01 3.00395 10.2004 3.68513 8.5559C4.36632 6.91136 5.51988 5.50576 6.99992 4.51682C8.47996 3.52789 10.22 3.00005 12.0001 3.00005C14.3862 3.00278 16.6738 3.95187 18.361 5.6391C20.0482 7.32634 20.9973 9.61394 21.0001 12ZM18.0001 12C18.0001 11.8011 17.921 11.6104 17.7804 11.4697C17.6397 11.3291 17.449 11.25 17.2501 11.25H12.7501V6.75005C12.7501 6.55114 12.671 6.36037 12.5304 6.21972C12.3897 6.07907 12.199 6.00005 12.0001 6.00005C11.8011 6.00005 11.6104 6.07907 11.4697 6.21972C11.3291 6.36037 11.2501 6.55114 11.2501 6.75005V12C11.2501 12.199 11.3291 12.3897 11.4697 12.5304C11.6104 12.671 11.8011 12.75 12.0001 12.75H17.2501C17.449 12.75 17.6397 12.671 17.7804 12.5304C17.921 12.3897 18.0001 12.199 18.0001 12Z" fill="#192022"/>
</svg>
