<svg width="24" height="24" viewBox="0 0 24 24" fill="none" xmlns="http://www.w3.org/2000/svg">
<g id="IG" clip-path="url(#clip0_535_930)">
<path id="Vector" fill-rule="evenodd" clip-rule="evenodd" d="M23.9343 7.04198C23.8781 5.76932 23.6719 4.89437 23.3765 4.13621C23.0717 3.33145 22.6029 2.61095 21.9886 2.01199C21.3885 1.40372 20.6618 0.93106 19.8647 0.631673C19.1007 0.336856 18.2286 0.13105 16.9534 0.074938C15.6686 0.0140737 15.2608 0 12.0023 0C8.74388 0 8.33602 0.0140737 7.05605 0.0701859C5.78084 0.126298 4.90415 0.332286 4.14466 0.626921C3.33811 0.93106 2.61617 1.39897 2.01601 2.01199C1.40652 2.61095 0.933103 3.33621 0.632935 4.13165C0.337529 4.89437 0.131312 5.76456 0.0750877 7.03723C0.0141018 8.3194 0 8.72644 0 11.9784C0 15.2303 0.0141018 15.6374 0.0703261 16.9148C0.12655 18.1875 0.33295 19.0624 0.628356 19.8206C0.933103 20.6253 1.40652 21.3458 2.01601 21.9448C2.61617 22.5531 3.34287 23.0257 4.1399 23.3251C4.90415 23.6199 5.77608 23.8257 7.05147 23.8818C8.33126 23.9381 8.7393 23.952 11.9977 23.952C15.2562 23.952 15.664 23.9381 16.944 23.8818C18.2192 23.8257 19.0959 23.6199 19.8554 23.3251C21.4683 22.7028 22.7435 21.4301 23.3671 19.8206C23.6623 19.0578 23.8687 18.1875 23.925 16.9148C23.9812 15.6374 23.9953 15.2303 23.9953 11.9784C23.9953 8.72644 23.9905 8.3194 23.9343 7.04198ZM12.0022 5.82538C8.59849 5.82538 5.83691 8.58125 5.83691 11.9783C5.83691 15.3754 8.59849 18.1312 12.0022 18.1312C15.406 18.1312 18.1674 15.3754 18.1674 11.9783C18.1674 8.58125 15.406 5.82538 12.0022 5.82538ZM12.0022 15.9696C9.79404 15.9696 8.00292 14.1822 8.00292 11.9783C8.00292 9.77441 9.79404 7.98705 12.0022 7.98705C14.2105 7.98705 16.0014 9.77441 16.0014 11.9783C16.0014 14.1822 14.2105 15.9696 12.0022 15.9696ZM18.412 7.01855C19.207 7.01855 19.8514 6.37537 19.8514 5.58212C19.8514 4.78869 19.207 4.14569 18.412 4.14569C17.6171 4.14569 16.9727 4.78869 16.9727 5.58212C16.9727 6.37537 17.6171 7.01855 18.412 7.01855Z" fill="white"/>
</g>
<defs>
<clipPath id="clip0_535_930">
<rect width="24" height="24" fill="white"/>
</clipPath>
</defs>
</svg>
