<svg width="24" height="24" viewBox="0 0 24 24" fill="none" xmlns="http://www.w3.org/2000/svg">
<g id="LinkedIn" clip-path="url(#clip0_535_932)">
<path id="Vector" d="M19.5 0H4.5C2.01563 0 0 2.0116 0 4.49102V19.4611C0 21.9405 2.01563 23.9521 4.5 23.9521H19.5C21.9844 23.9521 24 21.9405 24 19.4611V4.49102C24 2.0116 21.9844 0 19.5 0ZM7.42067 20.3319H3.69231L3.67067 9.19075H7.39904L7.42067 20.3319ZM5.46274 7.73333H5.44111C4.22236 7.73333 3.4363 6.89486 3.4363 5.85128C3.4363 4.7825 4.2476 3.97282 5.48798 3.97282C6.72837 3.97282 7.48918 4.7825 7.51442 5.85128C7.51442 6.89486 6.72476 7.73333 5.46274 7.73333ZM20.3474 20.3319H16.5865V14.2791C16.5865 12.8145 16.1971 11.8177 14.8846 11.8177C13.8822 11.8177 13.3413 12.4906 13.0817 13.142C12.9844 13.3759 12.9591 13.6962 12.9591 14.0236V20.3319H9.18029L9.15865 9.19075H12.9375L12.9591 10.7633C13.4423 10.0184 14.2464 8.96404 16.1719 8.96404C18.5589 8.96404 20.3438 10.5186 20.3438 13.8617V20.3319H20.3474Z" fill="white"/>
</g>
<defs>
<clipPath id="clip0_535_932">
<rect width="24" height="24" fill="white"/>
</clipPath>
</defs>
</svg>
