<svg width="20" height="20" viewBox="0 0 20 20" fill="none" xmlns="http://www.w3.org/2000/svg">
<g id="Frame">
<path id="Vector" opacity="0.2" d="M15 8.75C15 9.98613 14.6334 11.1945 13.9467 12.2223C13.2599 13.2501 12.2838 14.0512 11.1418 14.5242C9.99974 14.9973 8.74307 15.1211 7.53069 14.8799C6.31831 14.6388 5.20466 14.0435 4.33059 13.1694C3.45651 12.2953 2.86125 11.1817 2.62009 9.96931C2.37894 8.75693 2.50271 7.50027 2.97576 6.35823C3.4488 5.21619 4.24988 4.24007 5.27769 3.55331C6.3055 2.86656 7.51387 2.5 8.75 2.5C9.57076 2.5 10.3835 2.66166 11.1418 2.97575C11.9001 3.28984 12.5891 3.75022 13.1694 4.33058C13.7498 4.91095 14.2102 5.59994 14.5243 6.35823C14.8383 7.11651 15 7.92924 15 8.75Z" fill="white"/>
<path id="Vector_2" d="M17.9422 17.0578L14.0312 13.1469C15.167 11.7847 15.7339 10.0371 15.614 8.2676C15.494 6.49811 14.6965 4.84298 13.3873 3.64654C12.0781 2.4501 10.358 1.80446 8.58491 1.84395C6.8118 1.88343 5.12217 2.605 3.86753 3.85853C2.61288 5.11207 1.88982 6.80106 1.84877 8.57413C1.80772 10.3472 2.45184 12.0679 3.64712 13.3781C4.8424 14.6884 6.49682 15.4874 8.26621 15.6089C10.0356 15.7304 11.7837 15.165 13.1469 14.0305L17.0578 17.9422C17.1159 18.0002 17.1848 18.0463 17.2607 18.0777C17.3366 18.1092 17.4179 18.1253 17.5 18.1253C17.5821 18.1253 17.6634 18.1092 17.7393 18.0777C17.8152 18.0463 17.8841 18.0002 17.9422 17.9422C18.0003 17.8841 18.0463 17.8152 18.0777 17.7393C18.1092 17.6634 18.1253 17.5821 18.1253 17.5C18.1253 17.4179 18.1092 17.3366 18.0777 17.2607C18.0463 17.1848 18.0003 17.1159 17.9422 17.0578ZM3.125 8.74999C3.125 7.63747 3.4549 6.54994 4.07298 5.62491C4.69106 4.69988 5.56957 3.97891 6.5974 3.55317C7.62524 3.12743 8.75624 3.01603 9.84738 3.23308C10.9385 3.45012 11.9408 3.98585 12.7275 4.77252C13.5141 5.55919 14.0499 6.56147 14.2669 7.65261C14.484 8.74375 14.3726 9.87475 13.9468 10.9026C13.5211 11.9304 12.8001 12.8089 11.8751 13.427C10.9501 14.0451 9.86252 14.375 8.75 14.375C7.25866 14.3733 5.82888 13.7802 4.77435 12.7256C3.71982 11.6711 3.12665 10.2413 3.125 8.74999Z" fill="white"/>
</g>
</svg>
