<svg width="20" height="20" viewBox="0 0 20 20" fill="none" xmlns="http://www.w3.org/2000/svg">
<path d="M3.3083 6.69219C3.25019 6.63415 3.20409 6.56522 3.17264 6.48934C3.14119 6.41347 3.125 6.33214 3.125 6.25C3.125 6.16787 3.14119 6.08654 3.17264 6.01067C3.20409 5.93479 3.25019 5.86586 3.3083 5.80782L5.8083 3.30782C5.89571 3.22031 6.00712 3.1607 6.12843 3.13655C6.24973 3.11239 6.37547 3.12477 6.48974 3.17211C6.604 3.21946 6.70165 3.29964 6.77032 3.40252C6.83899 3.50539 6.87559 3.62632 6.87549 3.75V5.625H16.2505C16.4163 5.625 16.5752 5.69085 16.6924 5.80806C16.8096 5.92527 16.8755 6.08424 16.8755 6.25C16.8755 6.41576 16.8096 6.57474 16.6924 6.69195C16.5752 6.80916 16.4163 6.875 16.2505 6.875H6.87549V8.75C6.87559 8.87369 6.83899 8.99462 6.77032 9.09749C6.70165 9.20036 6.604 9.28055 6.48974 9.32789C6.37547 9.37524 6.24973 9.38762 6.12843 9.36346C6.00712 9.3393 5.89571 9.2797 5.8083 9.19219L3.3083 6.69219ZM16.6927 13.3078L14.1927 10.8078C14.1053 10.7203 13.9939 10.6607 13.8726 10.6365C13.7513 10.6124 13.6255 10.6248 13.5112 10.6721C13.397 10.7195 13.2993 10.7996 13.2307 10.9025C13.162 11.0054 13.1254 11.1263 13.1255 11.25V13.125H3.75049C3.58473 13.125 3.42576 13.1909 3.30855 13.3081C3.19134 13.4253 3.12549 13.5842 3.12549 13.75C3.12549 13.9158 3.19134 14.0747 3.30855 14.1919C3.42576 14.3092 3.58473 14.375 3.75049 14.375H13.1255V16.25C13.1254 16.3737 13.162 16.4946 13.2307 16.5975C13.2993 16.7004 13.397 16.7805 13.5112 16.8279C13.6255 16.8752 13.7513 16.8876 13.8726 16.8635C13.9939 16.8393 14.1053 16.7797 14.1927 16.6922L16.6927 14.1922C16.7508 14.1341 16.7969 14.0652 16.8283 13.9893C16.8598 13.9135 16.876 13.8321 16.876 13.75C16.876 13.6679 16.8598 13.5865 16.8283 13.5107C16.7969 13.4348 16.7508 13.3659 16.6927 13.3078Z" fill="#4E5E65"/>
</svg>
