<svg width="42" height="42" viewBox="0 0 42 42" fill="none" xmlns="http://www.w3.org/2000/svg">
<circle cx="21" cy="21" r="20.5" fill="#075272" fill-opacity="0.1" stroke="#075272"/>
<path d="M17.2784 27V15.3636H21.5398C22.3655 15.3636 23.0492 15.5 23.5909 15.7727C24.1326 16.0417 24.5379 16.4072 24.8068 16.8693C25.0758 17.3277 25.2102 17.8447 25.2102 18.4205C25.2102 18.9053 25.1212 19.3144 24.9432 19.6477C24.7652 19.9773 24.5265 20.2424 24.2273 20.4432C23.9318 20.6402 23.6061 20.7841 23.25 20.875V20.9886C23.6364 21.0076 24.0133 21.1326 24.3807 21.3636C24.7519 21.5909 25.0587 21.9148 25.3011 22.3352C25.5436 22.7557 25.6648 23.267 25.6648 23.8693C25.6648 24.464 25.5246 24.9981 25.2443 25.4716C24.9678 25.9413 24.5398 26.3144 23.9602 26.5909C23.3807 26.8636 22.6402 27 21.7386 27H17.2784ZM19.0341 25.4943H21.5682C22.4091 25.4943 23.0114 25.3314 23.375 25.0057C23.7386 24.6799 23.9205 24.2727 23.9205 23.7841C23.9205 23.4167 23.8277 23.0795 23.642 22.7727C23.4564 22.4659 23.1913 22.2216 22.8466 22.0398C22.5057 21.858 22.1004 21.767 21.6307 21.767H19.0341V25.4943ZM19.0341 20.3977H21.3864C21.7803 20.3977 22.1345 20.322 22.4489 20.1705C22.767 20.0189 23.0189 19.8068 23.2045 19.5341C23.3939 19.2576 23.4886 18.9318 23.4886 18.5568C23.4886 18.0758 23.3201 17.6723 22.983 17.3466C22.6458 17.0208 22.1288 16.858 21.4318 16.858H19.0341V20.3977Z" fill="#075272"/>
</svg>
